<svg width="80" height="80" viewBox="0 0 80 80" fill="none" xmlns="http://www.w3.org/2000/svg">
<g clip-path="url(#clip0_531_54)">
<path d="M70.8051 23.8023C76.9401 27.6252 82.3622 32.9177 72.1894 44.2823C62.9895 58.1923 70.5795 59.0539 61.9432 65.5251C53.3068 71.9963 46.5467 70.1049 36.6576 68.5675C27.057 67.0749 18.5986 71.3508 12.3085 62.9562C6.77606 55.5727 15.5592 53.5039 7.17836 37.3309C-1.94967 28.2665 15.4486 13.451 27.6435 19.7496C36.2469 21.2551 41.2561 -2.61228 53.8264 14.1637C61.1897 23.9906 63.1814 19.0517 70.8051 23.8023Z" fill="#F8BD49"/>
<path d="M11.0762 61.6742C4.28787 58.6873 -1.98922 54.1031 6.69988 41.0694C14.0313 25.592 6.19386 25.8264 14.0313 17.989C21.8687 10.1516 29.0123 11.0847 39.284 11.2007C49.2562 11.3132 57.2312 5.73219 64.8401 13.3411C71.5325 20.0336 62.9075 23.4197 73.7689 38.6256C84.3587 46.5001 68.8278 64.0964 55.5226 59.4803C46.562 59.2088 44.9328 84.19 29.7268 68.984C20.8197 60.0768 19.5119 65.3859 11.0762 61.6742Z" fill="#C23320"/>
<path d="M50.8501 35.4454L49.4865 33.6273L48.7283 38.9346C48.6589 39.4207 48.4293 39.8798 48.082 40.2271L38.746 49.5632C37.9317 50.3776 36.8477 50.8261 35.6938 50.8261C35.349 50.8261 35.0106 50.7852 34.6836 50.7073C35.1802 51.4838 36.0495 52 37.0376 52H48.2095C49.7495 52 51.0024 50.7471 51.0024 49.2071V35.9024C51.0024 35.7376 50.949 35.5773 50.8501 35.4454Z" fill="white"/>
<path d="M40.7227 38.6549C41.1433 38.6549 41.4844 38.3139 41.4844 37.8932C41.4844 37.4725 41.1433 37.1315 40.7227 37.1315C40.302 37.1315 39.9609 37.4725 39.9609 37.8932C39.9609 38.3139 40.302 38.6549 40.7227 38.6549Z" fill="white"/>
<path d="M32.0977 38.6549C32.5183 38.6549 32.8594 38.3139 32.8594 37.8932C32.8594 37.4725 32.5183 37.1315 32.0977 37.1315C31.677 37.1315 31.3359 37.4725 31.3359 37.8932C31.3359 38.3139 31.677 38.6549 32.0977 38.6549Z" fill="white"/>
<path d="M37.6663 48.4859L47.0023 39.1499C47.1188 39.0333 47.1945 38.8821 47.2178 38.719L48.295 31.1783C48.3289 30.941 48.2491 30.7015 48.0796 30.532L46.4637 28.9161L44.3093 31.0706L44.8479 31.6093C45.1454 31.9067 45.1454 32.389 44.8479 32.6865C44.6992 32.8352 44.5042 32.9096 44.3093 32.9096C44.1144 32.9096 43.9194 32.8352 43.7707 32.6865L41.6162 30.532C41.3188 30.2346 41.3188 29.7523 41.6162 29.4548C41.9137 29.1574 42.396 29.1574 42.6935 29.4548L43.2321 29.9934L45.3865 27.8389L43.7707 26.2231C43.6012 26.0535 43.3617 25.974 43.1243 26.0076L35.5836 27.0849C35.4205 27.1082 35.2693 27.1838 35.1528 27.3003L25.8168 36.6364C24.7277 37.7253 24.7277 39.4973 25.8168 40.5862L33.7164 48.4859C34.2609 49.0304 34.9762 49.3026 35.6914 49.3026C36.4066 49.3026 37.1218 49.0304 37.6663 48.4859ZM40.7184 35.608C41.9785 35.608 43.0036 36.6331 43.0036 37.8931C43.0036 39.1532 41.9785 40.1783 40.7184 40.1783C39.4584 40.1783 38.4333 39.1532 38.4333 37.8931C38.4333 36.6331 39.4584 35.608 40.7184 35.608ZM32.1006 40.1783C30.8405 40.1783 29.8154 39.1532 29.8154 37.8931C29.8154 36.6331 30.8405 35.608 32.1006 35.608C33.3606 35.608 34.3857 36.6331 34.3857 37.8931C34.3857 39.1532 33.3607 40.1783 32.1006 40.1783ZM34.6142 44.0412C34.5344 44.0412 34.4532 44.0286 34.3733 44.002C33.9742 43.8689 33.7585 43.4376 33.8915 43.0384L37.4823 32.2661C37.6153 31.867 38.0467 31.6513 38.4458 31.7843C38.8449 31.9174 39.0605 32.3487 38.9275 32.7478L35.3368 43.5202C35.2304 43.8393 34.9331 44.0412 34.6142 44.0412Z" fill="white"/>
<path d="M48.0758 27.3004C48.3733 27.003 48.3733 26.5206 48.0758 26.2232C47.7784 25.9257 47.2961 25.9257 46.9986 26.2232L45.3828 27.839L46.46 28.9162L48.0758 27.3004Z" fill="white"/>
</g>
<defs>
<clipPath id="clip0_531_54">
<rect width="80" height="80" fill="white"/>
</clipPath>
</defs>
</svg>
