<svg width="80" height="80" viewBox="0 0 80 80" fill="none" xmlns="http://www.w3.org/2000/svg">
<g clip-path="url(#clip0_531_30)">
<path d="M66.2657 41.2338C68.6768 47.4411 69.7504 54.3381 55.973 57.0969C41.5067 62.2696 46.6262 67.0976 36.6846 67.0976C26.7429 67.0976 22.804 61.9688 16.3628 55.3727C10.1095 48.9688 1.51172 47.4487 1.51172 37.7853C1.51172 29.2859 9.12968 32.6126 11.8852 16.0598C10.163 4.3349 31.1736 3.02342 36.6846 14.4035C42.1955 20.2659 59.0729 5.43735 59.0729 24.7489C59.0729 36.0611 63.2695 33.5202 66.2657 41.2338Z" fill="#F8BD49"/>
<path d="M72.8845 27.782C78.5329 32.5882 83.2338 38.7783 71.1754 48.7769C59.7178 61.5058 67.294 63.5262 57.54 68.7903C47.786 74.0543 41.209 71.1141 31.401 68.0607C21.8789 65.0964 12.6395 68.1593 7.52892 58.6897C3.03388 50.3607 12.2674 49.5869 6.21675 31.907C-1.67378 21.3291 18.2467 8.91889 29.6721 17.1527C38.1795 19.9796 46.8961 -3.48819 57.1092 15.4362C63.0918 26.5215 65.8655 21.8095 72.8845 27.782Z" fill="#C23320"/>
<g clip-path="url(#clip1_531_30)">
<path d="M35.2913 38.7128C35.3754 38.6056 35.3992 38.4675 35.3641 38.2909C35.3295 38.1164 35.2526 37.9925 35.1291 37.9121C35.0066 37.8324 34.8393 37.813 34.6328 37.854L33.9609 37.9874L34.1764 39.0727L34.834 38.9422C35.052 38.899 35.2058 38.8218 35.2913 38.7128Z" fill="white"/>
<path d="M54.2188 41.1651C54.1095 41.1422 54.0063 41.1205 53.9143 41.0966C52.8975 40.8321 52.393 40.6746 52.0395 39.992L50.7127 37.3057C50.2892 36.4881 49.1956 35.823 48.2749 35.823H45.893V33.9918C45.893 33.4454 45.4485 33.0009 44.902 33.0009L29.0919 33.0174C28.5607 33.0174 28.1602 33.4399 28.1602 34.0003V47.7082C28.1602 48.2546 28.6047 48.6992 29.1511 48.6992H30.8798C31.138 50.5248 32.7102 51.9339 34.6062 51.9339C36.5024 51.9339 38.0748 50.5249 38.333 48.6992H44.632C44.6735 48.6992 44.716 48.6969 44.7586 48.6936C45.0144 50.522 46.5879 51.9339 48.4858 51.9339C50.3819 51.9339 51.9544 50.5249 52.2125 48.6992H54.6882C55.6454 48.6992 56.4241 47.9205 56.4241 46.9633V43.9852C56.4243 41.6278 55.097 41.3493 54.2188 41.1651ZM30.9232 40.4588L31.2681 42.1961L30.2974 42.3888L29.4412 38.0757L32.4564 37.4772L32.6109 38.2554L30.5664 38.6612L30.7687 39.6805L32.5203 39.3328L32.6747 40.1111L30.9232 40.4588ZM34.6063 49.5648C33.8372 49.5648 33.2116 48.9391 33.2116 48.17C33.2116 47.401 33.8372 46.7753 34.6063 46.7753C35.3756 46.7753 36.0015 47.401 36.0015 48.17C36.0015 48.9391 35.3756 49.5648 34.6063 49.5648ZM36.2068 41.2156L36.1859 41.2048C36.0822 41.151 36.0006 41.0454 35.9434 40.8907C35.8909 40.749 35.8511 40.6107 35.8251 40.4795L35.7663 40.1837C35.7287 39.994 35.6482 39.856 35.527 39.7735C35.406 39.6911 35.25 39.6685 35.0626 39.7056L34.3305 39.851L34.6622 41.5221L33.6915 41.7148L32.8353 37.4018L34.4779 37.0757C34.968 36.9784 35.381 37.0156 35.7055 37.186C36.0351 37.3591 36.2432 37.6536 36.3242 38.0613C36.3697 38.2908 36.3482 38.5035 36.2604 38.6934C36.1925 38.8401 36.0863 38.9752 35.9439 39.0965C36.1456 39.1387 36.3089 39.2245 36.431 39.3523C36.5812 39.5101 36.6838 39.723 36.736 39.9852L36.7969 40.2925C36.819 40.4036 36.8576 40.5183 36.9119 40.6337C36.9621 40.7405 37.0255 40.8143 37.1004 40.8532L37.1291 40.8681L37.1605 41.0262L36.2068 41.2156ZM37.5795 40.9431L36.7234 36.6301L39.7127 36.0367L39.8672 36.8149L37.8485 37.2156L38.0309 38.1344L39.7625 37.7907L39.9169 38.569L38.1854 38.9127L38.3957 39.9722L40.4202 39.5704L40.5746 40.3487L37.5795 40.9431ZM40.9564 40.2728L40.1003 35.9597L43.0896 35.3663L43.2441 36.1445L41.2255 36.5453L41.4079 37.464L43.1394 37.1203L43.2938 37.8986L41.5623 38.2423L41.7727 39.3018L43.797 38.8999L43.9515 39.6782L40.9564 40.2728ZM48.4859 49.5648C47.7168 49.5648 47.0912 48.9391 47.0912 48.17C47.0912 47.401 47.7168 46.7753 48.4859 46.7753C49.2552 46.7753 49.8811 47.401 49.8811 48.17C49.8811 48.9391 49.2552 49.5648 48.4859 49.5648ZM45.893 40.9516V37.2496H47.7178C48.4182 37.2496 49.282 37.7751 49.6029 38.3941L50.7836 40.7846C50.814 40.8434 50.8458 40.899 50.8792 40.9516H45.893Z" fill="white"/>
</g>
</g>
<defs>
<clipPath id="clip0_531_30">
<rect width="80" height="80" fill="white"/>
</clipPath>
<clipPath id="clip1_531_30">
<rect width="28.2641" height="28.2641" fill="white" transform="translate(28.1602 28.3354)"/>
</clipPath>
</defs>
</svg>
