<svg width="80" height="80" viewBox="0 0 80 80" fill="none" xmlns="http://www.w3.org/2000/svg">
<g clip-path="url(#clip0_531_41)">
<path d="M56.7764 13.2114C63.9204 14.3139 70.9869 17.0479 66.1026 31.4972C63.1137 47.9043 70.431 45.7119 65.0351 55.0578C59.6392 64.4038 52.6799 65.323 42.983 67.7981C33.5688 70.2011 27.4732 77.4586 18.3889 72.2138C10.3987 67.6007 17.6608 62.2447 3.59534 50.6702C-8.36175 45.9254 1.80901 25.4619 15.4983 26.4577C24.0006 24.4588 19.2208 0.544419 37.3753 11.0259C48.0097 17.1657 47.8988 11.8414 56.7764 13.2114Z" fill="#F8BD49"/>
<path d="M74.8843 44.3295C77.7279 51.1791 79.0982 58.8302 63.8112 62.2487C47.8172 68.3718 53.645 73.6176 42.564 73.8681C31.483 74.1186 26.9636 68.5082 19.6182 61.3272C12.4871 54.3556 2.86571 52.8799 2.62251 42.122C2.4086 32.6599 10.9833 36.1714 13.638 17.6743C11.4234 4.66479 34.8089 2.67535 41.2378 15.2055C47.5279 21.5931 65.9663 4.6597 66.4523 26.1586C66.737 38.7521 71.3507 35.8177 74.8843 44.3295Z" fill="#C23320"/>
<path d="M52.3795 43.6907C51.1712 43.1739 49.7943 43.297 48.6966 44.0199C47.7602 44.6366 46.6937 44.9546 45.6034 44.9546C45.1758 44.9546 44.7445 44.9056 44.3159 44.8067C42.7948 44.4554 41.5191 43.522 40.7239 42.1786L39.2506 39.6896L34.9283 35.3673C33.7491 34.1881 33.0362 32.6669 32.8818 31.0274C31.3218 32.0447 29.992 33.3888 28.9901 34.9759C28.8595 35.1827 28.7354 35.3929 28.6172 35.606L33.0867 37.3631C35.5477 38.3305 37.0008 40.9229 36.5417 43.5271L36.4097 44.2761C36.2213 45.3453 36.4968 46.4489 37.1657 47.3041C37.8344 48.1592 38.8392 48.6925 39.9223 48.7672C41.6869 48.8889 43.3057 49.8534 44.2528 51.3472L45.6285 53.5171C46.8991 52.8956 48.0718 52.0617 49.1014 51.0322C51.0761 49.0575 52.3337 46.5572 52.745 43.8469L52.3795 43.6907Z" fill="white"/>
<path d="M41.0469 39.2881L42.2309 41.2885C42.7803 42.2166 43.6616 42.8613 44.7124 43.104C45.7631 43.3467 46.8379 43.1536 47.7387 42.5604C49.2749 41.5487 51.1889 41.3487 52.895 42.0127C52.8955 41.9675 52.8967 41.9225 52.8967 41.8773C52.8967 39.4252 52.2084 37.0388 50.906 34.976C49.9041 33.3888 48.5743 32.0447 47.0143 31.0274C46.8598 32.6669 46.147 34.1881 44.9677 35.3673L41.0469 39.2881Z" fill="white"/>
<path d="M39.947 54.8244C41.3391 54.8244 42.6976 54.6058 43.9835 54.1855L42.7774 52.2831C42.1269 51.2569 41.0148 50.5943 39.8027 50.5107C38.2261 50.402 36.7634 49.6257 35.7897 48.3808C34.8161 47.1359 34.415 45.5293 34.6893 43.9729L34.8213 43.2239C35.1366 41.4349 34.1385 39.6541 32.4479 38.9896L27.8746 37.1917C27.2987 38.6759 27 40.2624 27 41.8773C27 45.3356 28.3467 48.5869 30.7921 51.0323C33.2374 53.4776 36.4887 54.8244 39.947 54.8244Z" fill="white"/>
<path d="M34.5938 30.3492C34.5938 31.778 35.1502 33.1213 36.1605 34.1316L39.9429 37.914L43.7254 34.1316C44.7357 33.1213 45.2921 31.778 45.2921 30.3492C45.2921 27.3996 42.8925 25 39.9429 25C36.9933 25 34.5938 27.3996 34.5938 30.3492ZM39.9429 27.1828C41.6889 27.1828 43.1094 28.6033 43.1094 30.3493C43.1094 32.0952 41.6889 33.5158 39.9429 33.5158C38.1969 33.5158 36.7765 32.0953 36.7765 30.3493C36.7765 28.6034 38.1969 27.1828 39.9429 27.1828Z" fill="white"/>
<path d="M39.9463 31.7682C40.7299 31.7682 41.3652 31.1329 41.3652 30.3493C41.3652 29.5656 40.7299 28.9304 39.9463 28.9304C39.1626 28.9304 38.5273 29.5656 38.5273 30.3493C38.5273 31.1329 39.1626 31.7682 39.9463 31.7682Z" fill="white"/>
</g>
<defs>
<clipPath id="clip0_531_41">
<rect width="80" height="80" fill="white"/>
</clipPath>
</defs>
</svg>
