<svg width="80" height="80" viewBox="0 0 80 80" fill="none" xmlns="http://www.w3.org/2000/svg">
<g clip-path="url(#clip0_531_290)">
<path d="M68.9238 18.3258C75.7121 21.3127 81.9892 25.897 73.3001 38.9306C65.9687 54.4081 73.8061 54.1736 65.9687 62.0111C58.1313 69.8485 50.9877 68.9154 40.716 68.7994C30.7438 68.6868 22.7688 74.2679 15.16 66.659C8.46749 59.9665 17.0925 56.5804 6.23111 41.3744C-4.35873 33.4999 11.1722 15.9037 24.4774 20.5198C33.438 20.7913 35.0672 -4.18989 50.2732 11.016C59.1803 19.9232 60.4881 14.6141 68.9238 18.3258Z" fill="#C23320"/>
<path d="M9.19486 56.1976C3.05992 52.3747 -2.36216 47.0822 7.81058 35.7176C17.0105 21.8076 9.42052 20.946 18.0568 14.4748C26.6932 8.00357 33.4533 9.89499 43.3424 11.4324C52.943 12.925 61.4014 8.64911 67.6915 17.0437C73.2239 24.4272 64.4408 26.4959 72.8216 42.669C81.9497 51.7334 64.5514 66.5489 52.3565 60.2503C43.7531 58.7447 38.7439 82.6122 26.1736 65.8361C18.8103 56.0093 16.8186 60.9482 9.19486 56.1976Z" fill="#F8BD49"/>
<path d="M30.4559 46.5693C29.7076 46.8877 28.9537 47.396 28.3662 47.9835L26.9114 49.4374C26.7357 49.6131 26.6367 49.8512 26.6367 50.1002V51.4259C26.6367 51.9441 27.056 52.3634 27.5742 52.3634H28.8999C29.1489 52.3634 29.387 52.2645 29.5627 52.0887L31.0175 50.6348C31.6053 50.0471 32.1135 49.293 32.4319 48.5445C32.0685 48.2555 31.7154 47.9507 31.3823 47.6177C31.048 47.2835 30.7433 46.9311 30.4559 46.5693Z" fill="#C23320"/>
<path d="M25.6012 48.0966L27.0404 46.6574C27.7141 45.9838 28.5571 45.3926 29.3993 44.9904C29.1271 44.5081 28.8821 44.0153 28.6806 43.5073C27.102 43.5686 25.4808 44.2389 24.2746 45.4444C24.0989 45.6201 24 45.8581 24 46.1072C24 46.3563 24.0989 46.5943 24.2747 46.77L25.6012 48.0966Z" fill="#C23320"/>
<path d="M32.3454 51.9602L30.9062 53.3994L32.2319 54.7251C32.5981 55.0913 33.1914 55.0913 33.5576 54.7251C34.7657 53.5177 35.4384 51.8986 35.5002 50.3217C34.9876 50.1185 34.4916 49.8772 34.0106 49.605C33.6086 50.4462 33.0179 51.2878 32.3454 51.9602Z" fill="#C23320"/>
<path d="M50.4356 25.9109L48.9808 27.3647C48.393 27.9525 47.8848 28.7065 47.5664 29.4551C47.9298 29.744 48.2829 30.0489 48.616 30.3819C48.9503 30.7162 49.2551 31.0685 49.5425 31.4302C50.2908 31.1118 51.0447 30.6036 51.6322 30.016L53.087 28.5622C53.2627 28.3865 53.3616 28.1484 53.3616 27.8994V26.5737C53.3616 26.0555 52.9423 25.6362 52.4242 25.6362H51.0985C50.8494 25.6362 50.6113 25.7351 50.4356 25.9109Z" fill="#C23320"/>
<path d="M46.4465 23.2747C45.2383 24.4821 44.5657 26.1011 44.5039 27.6781C45.0165 27.8813 45.5125 28.1226 45.9935 28.3948C46.3955 27.5537 46.9862 26.7121 47.6586 26.0396L49.0978 24.6004L47.7722 23.2747C47.406 22.9084 46.8127 22.9084 46.4465 23.2747Z" fill="#C23320"/>
<path d="M32.7072 31.7076C28.6862 35.7286 28.6862 42.271 32.7072 46.292C36.7281 50.313 43.2704 50.3131 47.2915 46.292C51.3125 42.271 51.3125 35.7286 47.2915 31.7076C43.2705 27.6866 36.7281 27.6866 32.7072 31.7076ZM44.6392 43.6397C43.4014 44.8775 41.5841 44.9516 40.7208 44.9077L39.9993 45.6291C39.7456 45.8828 39.3704 45.9675 39.0398 45.8553C38.9501 45.8259 36.8243 45.1064 35.3585 43.6397C33.8928 42.1748 33.1732 40.049 33.1438 39.9593C33.0312 39.6223 33.1191 39.2506 33.37 38.9998L34.0914 38.2783C34.0457 37.4068 34.1216 35.5968 35.3585 34.359C37.9183 31.801 42.0811 31.801 44.6391 34.359C45.7204 35.4402 46.3924 36.8711 46.5334 38.3891C46.7156 40.3411 46.0253 42.2554 44.6392 43.6397Z" fill="#C23320"/>
<path d="M36.6864 35.6845C35.7242 36.6476 35.9906 38.4659 35.9934 38.4842C36.0391 38.7799 35.9421 39.0829 35.7306 39.2935L35.1328 39.8913C35.3224 40.3295 35.6467 40.9778 36.0856 41.5894L37.3502 40.3253C37.7164 39.9591 38.3097 39.9591 38.6759 40.3253C39.0421 40.6914 39.0421 41.2848 38.6759 41.6509L37.4127 42.9136C38.0021 43.3355 38.6399 43.6663 39.109 43.8702L39.7077 43.2705C39.9192 43.0572 40.2159 42.9565 40.5207 43.0078C40.5345 43.0105 42.3518 43.276 43.3159 42.3138C44.3056 41.3241 44.799 39.9572 44.6681 38.5628V38.5619C44.5683 37.4788 44.0886 36.4571 43.3159 35.6844C41.4884 33.8571 38.5138 33.8571 36.6864 35.6845ZM38.6756 38.6008C38.2221 38.6549 37.6928 38.1591 37.7479 37.6731C37.7209 37.1721 38.171 36.7182 38.6756 36.7454C39.1792 36.7454 39.6034 37.1694 39.6034 37.6731C39.6307 38.1773 39.1804 38.6281 38.6756 38.6008ZM41.3274 41.2524C40.8739 41.3066 40.3446 40.8108 40.3997 40.3247C40.3479 39.8929 40.7832 39.3676 41.3274 39.397C41.831 39.397 42.2551 39.821 42.2551 40.3247C42.2846 40.8705 41.7599 41.3041 41.3274 41.2524Z" fill="#C23320"/>
<path d="M54.3996 29.9033L52.9604 31.3425C52.2868 32.0161 51.4437 32.6072 50.6016 33.0094C50.8738 33.4917 51.1189 33.9847 51.3204 34.4926C52.899 34.4313 54.5201 33.7608 55.7262 32.5555C55.902 32.3798 56.0009 32.1417 56.0009 31.8927C56.0009 31.6437 55.9021 31.4056 55.7262 31.2299L54.3996 29.9033Z" fill="#C23320"/>
</g>
<defs>
<clipPath id="clip0_531_290">
<rect width="80" height="80" fill="white" transform="translate(80 80) rotate(180)"/>
</clipPath>
</defs>
</svg>
