<svg width="80" height="80" viewBox="0 0 80 80" fill="none" xmlns="http://www.w3.org/2000/svg">
<g clip-path="url(#clip0_531_285)">
<path d="M18.3229 11.0762C21.3098 4.28787 25.894 -1.98922 38.9277 6.69988C54.4052 14.0313 54.1707 6.19386 62.0081 14.0313C69.8456 21.8687 68.9124 29.0123 68.7965 39.284C68.6839 49.2562 74.2649 57.2312 66.656 64.8401C59.9636 71.5325 56.5774 62.9075 41.3715 73.7689C33.497 84.3587 15.9007 68.8278 20.5168 55.5226C20.7884 46.562 -4.19282 44.9328 11.0131 29.7268C19.9203 20.8197 14.6112 19.5119 18.3229 11.0762Z" fill="#C23320"/>
<path d="M73.8568 36.1832C78.1288 42.0143 81.1923 48.9443 67.5214 55.7078C53.8064 65.1959 60.5307 68.8197 50.1067 71.6128C39.6826 74.406 34.1116 70.135 25.5047 65.0284C17.1487 60.0707 7.70665 60.8923 4.99173 50.7601C2.60379 41.8482 11.5261 43.196 9.76472 25.0658C4.66484 13.2558 26.3265 5.97776 35.3022 16.3617C42.7276 20.9603 56.2579 0.670469 61.6835 20.9192C64.8617 32.7802 68.5481 28.937 73.8568 36.1832Z" fill="#F8BD49"/>
<path d="M55.9959 31.9179C56.1908 30.2357 49.3407 25.535 49.2714 25.4885C47.8806 24.5507 46.4747 24.9644 45.0933 26.7185C44.1828 27.8759 34.3603 38.7832 34.2241 39.0062C31.4067 42.7525 25.4633 46.3819 24.268 49.0536C23.7839 50.1371 24.0629 50.838 24.2725 51.1594C24.5643 51.6128 25.0653 51.8809 25.6114 51.8809C26.3435 51.8809 27.1423 51.3648 27.2798 50.2077C27.315 49.9123 32.7095 48.2656 35.4658 42.5601C35.4658 42.5601 35.9451 41.4741 36.3899 41.848C37.9608 43.4316 39.8493 45.3292 40.5769 46.0139C40.5807 46.6433 40.5322 47.2719 40.4515 47.8994C40.3154 48.9621 40.0899 50.0223 39.8825 51.0797C39.7756 51.5663 39.6544 52.0489 39.5214 52.526C39.2989 53.5618 39.6091 54.9122 40.4636 54.9933C41.512 55.0929 41.7678 54.0587 41.8948 53.156C41.9584 52.7045 41.9365 52.1679 41.8661 51.5836C41.793 51.0903 41.7004 50.6045 41.6076 50.1292C41.3309 48.9154 41.0831 47.7242 41.2865 46.4002C41.3568 46.4112 41.4289 46.4175 41.5047 46.4175C41.7405 46.4175 42.0015 46.3638 42.2882 46.2578C42.5297 46.1684 42.8029 46.0317 43.0997 45.8572C43.2995 46.921 42.5538 48.083 43.5055 48.8371C44.0639 49.3011 44.9425 49.2005 45.4334 48.7024C45.7127 48.368 45.7349 47.9334 45.638 47.551C45.3326 46.6931 44.1003 46.3104 44.4091 45.3968C44.4466 45.2812 44.5133 45.0686 44.5997 44.8205C44.8499 44.6272 45.1084 44.4187 45.3735 44.1981C45.3814 44.7365 45.1079 45.2922 45.5823 45.6681C45.8974 45.93 46.3931 45.873 46.6697 45.5923C46.8274 45.4037 46.8399 45.1585 46.785 44.9428C46.6127 44.4586 45.9177 44.2431 46.0919 43.7278C46.1063 43.6831 46.1291 43.6117 46.1576 43.5262C46.5204 43.2067 46.8916 42.8691 47.2674 42.5172C47.1088 43.1988 46.9466 43.8461 47.5114 44.394C48.0207 44.9116 48.9047 44.8991 49.4432 44.4524C49.7544 44.1476 49.8201 43.7174 49.7621 43.327C49.5459 42.4512 48.3798 41.949 48.7446 41.0859C52.3277 37.5029 55.8486 33.1991 55.9959 31.9179ZM28.7435 47.5995C28.4722 47.8343 28.0618 47.8051 27.8265 47.5344C27.5913 47.2636 27.6205 46.8537 27.8921 46.6192C28.1634 46.3845 28.5736 46.4137 28.8088 46.6844C29.0441 46.9552 29.0145 47.3649 28.7435 47.5995ZM30.217 46.3248C29.9454 46.5594 29.5352 46.5301 29.3003 46.2595C29.065 45.9887 29.0943 45.5787 29.3656 45.3443C29.6366 45.1096 30.047 45.1388 30.2823 45.4096C30.5175 45.6803 30.4883 46.0901 30.217 46.3248ZM31.6905 45.05C31.4192 45.2845 31.0087 45.2553 30.7734 44.9846C30.5382 44.7138 30.5677 44.3042 30.839 44.0696C31.11 43.8349 31.5208 43.8641 31.7558 44.1349C31.991 44.4054 31.9618 44.8152 31.6905 45.05ZM48.1248 27.0867C48.8069 27.0867 49.3597 27.6386 49.3597 28.3193C49.3597 29.0001 48.8069 29.552 48.1248 29.552C47.4428 29.552 46.8901 29.0001 46.8901 28.3193C46.8901 27.6386 47.4428 27.0867 48.1248 27.0867Z" fill="#C23320"/>
</g>
<defs>
<clipPath id="clip0_531_285">
<rect width="80" height="80" fill="white" transform="translate(80) rotate(90)"/>
</clipPath>
</defs>
</svg>
