<svg width="80" height="80" viewBox="0 0 80 80" fill="none" xmlns="http://www.w3.org/2000/svg">
<g clip-path="url(#clip0_531_277)">
<path d="M11.0762 61.6742C4.28787 58.6873 -1.98922 54.103 6.69988 41.0694C14.0313 25.5919 6.19386 25.8264 14.0313 17.9889C21.8687 10.1515 29.0123 11.0846 39.284 11.2006C49.2562 11.3132 57.2312 5.73213 64.8401 13.341C71.5325 20.0335 62.9075 23.4196 73.7689 38.6256C84.3587 46.5001 68.8278 64.0963 55.5226 59.4802C46.562 59.2087 44.9328 84.1899 29.7268 68.984C20.8197 60.0768 19.5119 65.3859 11.0762 61.6742Z" fill="#C23320"/>
<path d="M70.8051 23.8024C76.9401 27.6253 82.3622 32.9178 72.1894 44.2824C62.9895 58.1924 70.5795 59.054 61.9432 65.5252C53.3068 71.9964 46.5467 70.105 36.6576 68.5676C27.057 67.075 18.5986 71.3509 12.3085 62.9563C6.77606 55.5728 15.5592 53.5041 7.17836 37.331C-1.94967 28.2666 15.4486 13.4511 27.6435 19.7497C36.2469 21.2553 41.2561 -2.61216 53.8264 14.1639C61.1897 23.9907 63.1814 19.0518 70.8051 23.8024Z" fill="#F8BD49"/>
<path d="M51.6944 33.2883C51.4048 31.7596 50.9003 30.2306 49.9656 28.9687C49.1585 27.8788 48.0354 27.0419 46.7774 26.5417C45.5201 26.0418 44.0738 25.8436 42.7428 26.1366C41.9583 26.3092 41.2255 26.6584 40.6044 27.1682C40.0204 27.6475 39.5343 28.233 39.1156 28.8591C38.2408 30.167 37.6203 31.6251 37.0023 33.0657C36.3618 34.5587 35.7048 36.0511 34.8368 37.4293C34.4072 38.1152 33.8989 38.7643 33.3457 39.3545C32.829 39.9056 32.2465 40.3841 31.617 40.8015C31.6412 40.7853 31.644 40.7837 31.6147 40.803C30.7627 41.3671 29.9425 42.0034 29.2587 42.7665C28.6022 43.499 28.0349 44.405 28.0015 45.416C27.9844 45.9348 28.1179 46.4445 28.3591 46.9024C28.6981 47.5463 29.2614 48.0366 29.8853 48.3963C30.565 48.7879 31.3155 49.0217 32.0804 49.1776C32.2195 49.206 32.3501 49.2389 32.4809 49.2902C32.6031 49.3381 32.7363 49.3884 32.8393 49.4709C32.9517 49.5609 33.0616 49.6496 33.1505 49.764C33.2606 49.9056 33.3576 50.0587 33.4333 50.2214C33.7425 50.8854 33.9395 51.611 34.4442 52.165C34.6697 52.4125 34.9404 52.586 35.2603 52.6839C35.5905 52.785 35.9356 52.8285 36.2805 52.8298C36.9744 52.8326 37.6558 52.6757 38.3338 52.547C38.6765 52.482 39.0208 52.4243 39.3686 52.3938C39.5131 52.3809 39.6544 52.3714 39.7982 52.386C39.8568 52.3919 39.9169 52.3922 39.9739 52.4067C40.2122 52.4672 40.3598 52.6516 40.4265 52.7494C40.5823 52.9779 40.678 53.2404 40.7788 53.4963C40.956 53.9463 41.1196 54.4103 41.3809 54.8201C41.5682 55.1138 41.8068 55.3533 42.1105 55.5254C42.3829 55.6796 42.6853 55.7727 42.9973 55.797C43.6934 55.8514 44.3949 55.6008 44.9802 55.2393C45.6384 54.8327 46.1922 54.273 46.6778 53.6756C47.1609 53.0807 47.5869 52.4379 47.9788 51.78C48.7801 50.435 49.4224 49.0001 49.9556 47.5296C50.5031 46.019 50.956 44.4726 51.2956 42.9022C51.6365 41.3259 51.8639 39.7207 51.9582 38.1103C52.053 36.499 51.9954 34.8771 51.6944 33.2883ZM43.8672 32.3918C43.7208 33.0062 43.32 33.5857 42.7689 33.9027C42.2451 34.204 41.5378 34.2735 40.9812 34.0201C40.4778 33.7908 40.1753 33.2909 40.2273 32.7367C40.2841 32.1307 40.7059 31.6059 41.2052 31.2875C41.3865 31.1719 41.5827 31.0799 41.7875 31.0144C41.5819 31.0802 41.5007 31.1061 41.4935 31.1084C41.5028 31.1054 41.6454 31.0599 41.7879 31.0143C41.7877 31.0143 41.7876 31.0144 41.7873 31.0144C41.7876 31.0143 41.7879 31.0143 41.7881 31.0141C42.2993 30.8507 42.0444 30.9323 41.7889 31.014C42.3 30.8506 42.9591 30.7261 43.4519 31.0127C43.9322 31.2921 43.9843 31.8998 43.8672 32.3918ZM48.9242 34.6213C48.7922 35.1507 48.4288 35.6553 47.8747 35.7866C47.3044 35.9217 46.747 35.615 46.3976 35.1773C45.9726 34.6456 45.839 33.9662 45.8947 33.2998C45.9382 32.7818 46.1194 32.1339 46.6723 31.952C46.7989 31.9103 46.9338 31.8981 47.0664 31.9073C46.9769 31.9011 46.8878 31.8948 46.8456 31.8919C46.8787 31.8942 46.947 31.8989 47.0669 31.9073C47.1097 31.9103 47.1446 31.9127 47.1749 31.9148C47.2104 31.9172 47.2424 31.9194 47.2665 31.9211C47.245 31.9196 47.2142 31.9175 47.1749 31.9148C47.1413 31.9125 47.1046 31.9099 47.0674 31.9073C47.6534 31.9483 48.1927 32.3465 48.5383 32.8004C48.938 33.3252 49.084 33.9789 48.9242 34.6213Z" fill="#C23320"/>
<path d="M31.6154 40.8028C31.6162 40.8023 31.617 40.8018 31.6178 40.8013C31.428 40.9269 29.8974 41.9406 31.6154 40.8028Z" fill="#C23320"/>
</g>
<defs>
<clipPath id="clip0_531_277">
<rect width="80" height="80" fill="white"/>
</clipPath>
</defs>
</svg>
