<svg width="20" height="20" viewBox="0 0 20 20" fill="none" xmlns="http://www.w3.org/2000/svg">
<path d="M20 7.85445C20 7.55795 19.7757 7.37368 19.3268 7.30148L13.2933 6.42423L10.589 0.955369C10.4369 0.626831 10.2404 0.462646 10.0001 0.462646C9.75976 0.462646 9.56342 0.626831 9.41115 0.955369L6.70673 6.42423L0.672988 7.30148C0.224386 7.37368 0 7.55795 0 7.85445C0 8.0228 0.100195 8.21511 0.300542 8.43145L4.6756 12.6863L3.64195 18.6958C3.62591 18.808 3.61796 18.8884 3.61796 18.9363C3.61796 19.1045 3.65997 19.2467 3.74408 19.363C3.82815 19.4794 3.95428 19.5374 4.12263 19.5374C4.26695 19.5374 4.42713 19.4895 4.6034 19.3933L9.99994 16.5564L15.3969 19.3933C15.5654 19.4895 15.7256 19.5374 15.8774 19.5374C16.0382 19.5374 16.1601 19.4794 16.2443 19.363C16.3281 19.2469 16.3702 19.1045 16.3702 18.9363C16.3702 18.8323 16.3661 18.7521 16.3581 18.6958L15.3244 12.6863L19.6873 8.43145C19.896 8.2231 20 8.03071 20 7.85445Z" fill="#FFDD2B"/>
</svg>
