<svg width="8" height="8" viewBox="0 0 8 8" fill="none" xmlns="http://www.w3.org/2000/svg">
<g clip-path="url(#clip0_93_125)">
<g clip-path="url(#clip1_93_125)">
<path d="M4.89021 0.764771C4.82307 0.332975 4.45206 0 4.00185 0C3.50426 0 3.09949 0.405134 3.09949 0.902731C3.09949 1.40033 3.50426 1.80546 4.00185 1.80546C4.37091 1.80546 4.68786 1.58238 4.82778 1.26445C6.2001 1.63277 7.17462 2.88456 7.17462 4.32629C7.17462 6.07567 5.75124 7.49905 4.00185 7.49905C2.25253 7.49905 0.829085 6.07567 0.829085 4.32629C0.829085 4.18802 0.716871 4.07581 0.578605 4.07581C0.44034 4.07581 0.328125 4.18771 0.328125 4.32629C0.328125 6.35183 1.9763 8.00001 4.00185 8.00001C6.0274 8.00001 7.67558 6.35183 7.67558 4.32629C7.67558 2.63304 6.51467 1.16825 4.89021 0.764771ZM4.00185 1.3045C3.78042 1.3045 3.60045 1.12447 3.60045 0.903037C3.60045 0.681665 3.78042 0.50096 4.00185 0.50096C4.22329 0.50096 4.40332 0.681298 4.40332 0.902731C4.40332 1.12416 4.22329 1.3045 4.00185 1.3045Z" fill="#B9B9B9"/>
<path d="M0.653461 0.984073C0.555617 1.08192 0.555617 1.24055 0.653461 1.33839L3.7427 4.42762C3.79149 4.47642 3.85558 4.50113 3.91973 4.50113C3.98382 4.50113 4.04797 4.47673 4.09671 4.42762C4.19455 4.32978 4.19455 4.17115 4.09671 4.07331L1.00747 0.984073C0.909628 0.886168 0.751305 0.886168 0.653461 0.984073Z" fill="#B9B9B9"/>
</g>
</g>
<defs>
<clipPath id="clip0_93_125">
<rect width="8" height="8" fill="white"/>
</clipPath>
<clipPath id="clip1_93_125">
<rect width="8" height="8" fill="white"/>
</clipPath>
</defs>
</svg>
