<svg width="10" height="10" viewBox="0 0 10 10" fill="none" xmlns="http://www.w3.org/2000/svg">
<g clip-path="url(#clip0_93_132)">
<path d="M0 1.66016V8.33984H10V1.66016H0ZM9.41406 7.75391H0.585938V2.24609H9.41406V7.75391Z" fill="#B9B9B9"/>
<path d="M2.90842 3.5918H2.32812V6.10391H2.90842V3.5918Z" fill="#B9B9B9"/>
<path d="M5.1733 5.06701C5.1367 4.98447 5.08484 4.91434 5.01761 4.8565C4.95039 4.79873 4.8684 4.75033 4.7717 4.71143C4.67494 4.6725 4.56648 4.63656 4.44617 4.60352C4.35886 4.57996 4.28219 4.55873 4.21617 4.5398C4.15012 4.52096 4.09525 4.50035 4.05164 4.47789C4.00797 4.45551 3.97496 4.43014 3.95256 4.40182C3.93012 4.3735 3.91894 4.33811 3.91894 4.29564C3.91894 4.15648 4.02271 4.08689 4.23031 4.08689C4.30578 4.08689 4.38125 4.09752 4.45677 4.11875C4.53224 4.13998 4.60183 4.16475 4.66554 4.19305C4.72924 4.22135 4.78232 4.24852 4.82476 4.27443C4.86722 4.30041 4.89199 4.31811 4.89906 4.32752L5.15382 3.84629C5.0972 3.8133 5.03529 3.78027 4.96806 3.74723C4.90084 3.71424 4.8283 3.68477 4.75045 3.65877C4.67261 3.63285 4.59123 3.61162 4.50631 3.59508C4.42138 3.57859 4.33525 3.57031 4.24801 3.57031C4.12295 3.57031 4.00441 3.58799 3.89242 3.62338C3.78035 3.65877 3.68189 3.71129 3.59697 3.78084C3.51205 3.85045 3.44482 3.93598 3.39527 4.03738C3.34574 4.13883 3.32098 4.25561 3.32098 4.38768C3.32098 4.48205 3.33451 4.56461 3.36166 4.63537C3.38875 4.70613 3.43004 4.76867 3.48549 4.82291C3.54088 4.87721 3.61111 4.92498 3.69601 4.96621C3.78094 5.00752 3.88117 5.04582 3.99678 5.08123C4.08402 5.10721 4.16484 5.13076 4.23916 5.15199C4.31345 5.17322 4.37771 5.19623 4.43201 5.22098C4.48625 5.24574 4.52871 5.2735 4.55937 5.30414C4.59 5.3348 4.60537 5.37373 4.60537 5.42088C4.60541 5.54592 4.50279 5.6084 4.29758 5.6084C4.20082 5.6084 4.10529 5.59545 4.01097 5.56947C3.9166 5.54353 3.83107 5.51408 3.75445 5.48101C3.67777 5.44803 3.61348 5.415 3.5616 5.38195C3.50969 5.34894 3.479 5.32654 3.46961 5.31473L3.21484 5.8207C3.28793 5.87023 3.36754 5.91391 3.45369 5.95162C3.53978 5.98939 3.62885 6.02184 3.72084 6.04892C3.81283 6.07607 3.90717 6.09668 4.0039 6.11084C4.1006 6.125 4.19498 6.13207 4.28697 6.13207C4.40726 6.13207 4.52404 6.11848 4.63726 6.09139C4.75049 6.06428 4.85072 6.02062 4.938 5.96047C5.02525 5.90031 5.09546 5.82131 5.14853 5.7234C5.20162 5.62553 5.22814 5.50578 5.22814 5.36424C5.22814 5.24869 5.20984 5.14963 5.1733 5.06701Z" fill="#B9B9B9"/>
<path d="M7.83148 4.38789C7.7725 4.23459 7.68873 4.09775 7.58025 3.97744C7.47172 3.85715 7.34082 3.76045 7.1875 3.6873C7.03412 3.61422 6.8643 3.57764 6.67799 3.57764C6.49631 3.57764 6.32887 3.61246 6.17555 3.68201C6.02219 3.7516 5.88949 3.84479 5.77748 3.96152C5.66541 4.0783 5.57811 4.21338 5.51564 4.36666C5.45311 4.52002 5.42188 4.67926 5.42188 4.84434C5.42188 5.00711 5.45193 5.16518 5.51211 5.31848C5.57227 5.47184 5.65658 5.60809 5.7651 5.72715C5.87357 5.84631 6.00447 5.94244 6.15785 6.01553C6.31117 6.08867 6.481 6.12522 6.66736 6.12522C6.84898 6.12522 7.01645 6.08984 7.16981 6.01906C7.32311 5.9483 7.4552 5.85453 7.56609 5.73777C7.67695 5.621 7.76363 5.48598 7.82617 5.33264C7.88865 5.17932 7.91994 5.0201 7.91994 4.85496C7.91994 4.69695 7.89041 4.54125 7.83148 4.38789ZM7.28836 5.12211C7.26121 5.21293 7.22053 5.29432 7.16629 5.36625C7.11199 5.43822 7.04361 5.49662 6.96107 5.54141C6.87848 5.58625 6.78178 5.60863 6.67094 5.60863C6.56479 5.60863 6.47041 5.58738 6.38787 5.54492C6.30527 5.50246 6.23627 5.44586 6.18088 5.3751C6.12543 5.30434 6.08357 5.22356 6.05525 5.13272C6.02695 5.04195 6.01279 4.94818 6.01279 4.85143C6.01279 4.75709 6.02633 4.66449 6.05348 4.57367C6.08057 4.48289 6.12186 4.40207 6.1773 4.33129C6.2327 4.26053 6.30115 4.20336 6.38254 4.15969C6.46391 4.11607 6.56 4.09422 6.67092 4.09422C6.77707 4.09422 6.87084 4.1149 6.95221 4.15615C7.03359 4.19744 7.10258 4.25289 7.1592 4.32246C7.2158 4.39205 7.25826 4.47229 7.28658 4.56305C7.3149 4.65389 7.32904 4.74766 7.32904 4.84434C7.32904 4.93871 7.31545 5.03131 7.28836 5.12211Z" fill="#B9B9B9"/>
</g>
<defs>
<clipPath id="clip0_93_132">
<rect width="10" height="10" fill="white"/>
</clipPath>
</defs>
</svg>
