<svg width="10" height="10" viewBox="0 0 10 10" fill="none" xmlns="http://www.w3.org/2000/svg">
<g clip-path="url(#clip0_93_100)">
<path d="M5 0C2.24291 0 0 2.24291 0 5C0 7.75709 2.24291 10 5 10C7.75709 10 10 7.75709 10 5C10 2.24291 7.75709 0 5 0ZM5 9.58334C2.47291 9.58334 0.41666 7.52709 0.41666 5C0.41666 2.47291 2.47291 0.41666 5 0.41666C7.52709 0.41666 9.58334 2.47291 9.58334 5C9.58334 7.52709 7.52709 9.58334 5 9.58334Z" fill="#B9B9B9"/>
<path d="M9.4101 6.6665H3.97592C3.86092 6.6665 3.76758 6.75984 3.76758 6.87484C3.76758 6.98984 3.86092 7.08318 3.97592 7.08318H9.41008C9.52508 7.08318 9.61842 6.98984 9.61842 6.87484C9.61842 6.75984 9.5251 6.6665 9.4101 6.6665Z" fill="#B9B9B9"/>
<path d="M5.78609 9.65081L3.0911 4.87831C3.03443 4.7779 2.90651 4.7429 2.80693 4.79956C2.70693 4.85622 2.67152 4.98372 2.72818 5.08372L5.42277 9.85622C5.46111 9.92372 5.53193 9.96206 5.60443 9.96206C5.63943 9.96206 5.67443 9.95372 5.70734 9.93497C5.80734 9.87831 5.84277 9.75081 5.78609 9.65081Z" fill="#B9B9B9"/>
<path d="M4.06059 2.94314C3.96059 2.8873 3.83309 2.92189 3.77684 3.0223L1.0485 7.85564C0.991837 7.95648 1.02725 8.08314 1.12725 8.1398C1.15975 8.15771 1.19475 8.16646 1.22975 8.16646C1.30225 8.16646 1.37309 8.12812 1.411 8.06062L4.13934 3.22728C4.196 3.12646 4.16059 2.9998 4.06059 2.94314Z" fill="#B9B9B9"/>
<path d="M6.02242 2.9165H0.597012C0.481602 2.9165 0.388672 3.00984 0.388672 3.12484C0.388672 3.23984 0.482012 3.33318 0.597012 3.33318H6.02201C6.13701 3.33318 6.23076 3.23984 6.23076 3.12484C6.23076 3.00984 6.13742 2.9165 6.02242 2.9165Z" fill="#B9B9B9"/>
<path d="M7.27508 4.91278L4.58133 0.142777C4.52424 0.0423672 4.39674 0.00777734 4.29717 0.0640273C4.19717 0.120687 4.16176 0.248187 4.21842 0.348187L6.91176 5.11819C6.9501 5.18569 7.02092 5.22403 7.09342 5.22403C7.12842 5.22403 7.16342 5.21569 7.19633 5.19694C7.29633 5.14028 7.33176 5.01278 7.27508 4.91278Z" fill="#B9B9B9"/>
<path d="M8.87767 1.86606C8.77808 1.8094 8.65101 1.84397 8.59351 1.94481L5.861 6.77272C5.80434 6.87313 5.83975 6.99981 5.93975 7.05688C5.97184 7.07479 6.00725 7.08354 6.04225 7.08354C6.11475 7.08354 6.18516 7.04563 6.22391 6.97813L8.95642 2.15022C9.01308 2.04981 8.97767 1.92313 8.87767 1.86606Z" fill="#B9B9B9"/>
</g>
<defs>
<clipPath id="clip0_93_100">
<rect width="10" height="10" fill="white"/>
</clipPath>
</defs>
</svg>
