<svg width="101" height="88" viewBox="0 0 101 88" fill="none" xmlns="http://www.w3.org/2000/svg">
<g clip-path="url(#clip0_180_61)">
<path d="M83.7393 10.0679C82.6494 10.0679 81.7666 10.9422 81.7666 12.0162C81.7666 13.0926 82.6494 13.9645 83.7393 13.9645C84.8267 13.9645 85.7119 13.0926 85.7119 12.0162C85.7119 10.9397 84.8292 10.0679 83.7393 10.0679Z" fill="url(#paint0_linear_180_61)"/>
<path d="M93.9897 8.10494C89.28 2.87862 82.7505 0 75.6021 0C67.7854 0 60.6518 2.99308 54.973 8.65534C52.9979 10.6231 51.5233 12.5909 50.5 14.152C49.4767 12.5909 48.0021 10.6256 46.027 8.65534C40.3482 2.99308 33.2146 0 25.3979 0C10.4354 0 0 12.3644 0 27.0644C0 46.9225 21.3047 63.6389 49.2079 87.5227C49.5778 87.8393 50.0389 88 50.5 88C50.9611 88 51.4198 87.8417 51.7921 87.5227C79.7619 63.5829 101 46.8932 101 27.0644C101 19.8556 98.5095 13.1218 93.9897 8.10494ZM50.5 83.4726C24.1502 60.9551 3.94531 44.7793 3.94531 27.0644C3.94531 13.8549 13.1675 3.89661 25.3979 3.89661C32.1888 3.89661 38.1536 6.388 43.1272 11.3002C46.9147 15.0433 48.6827 18.862 48.7 18.901C49.018 19.5999 49.7208 20.048 50.4975 20.0505H50.5025C51.2767 20.0505 51.982 19.5999 52.3025 18.901C52.3198 18.862 54.0878 15.0433 57.8753 11.3002C62.8464 6.388 68.8112 3.89661 75.6021 3.89661C87.8325 3.89661 97.0547 13.8549 97.0547 27.0644C97.0547 45.1787 75.5157 62.0924 50.5 83.4726Z" fill="url(#paint1_linear_180_61)"/>
<path d="M90.6386 17.0087C90.1331 16.0565 88.9397 15.6887 87.9756 16.188C87.0114 16.6872 86.6391 17.8659 87.1446 18.8182C88.4465 21.2706 89.1641 24.2004 89.1641 27.0644C89.1641 32.695 86.4517 38.669 80.6249 45.8679C79.9444 46.7082 80.0825 47.9356 80.9356 48.6078C81.7913 49.2848 83.0316 49.1387 83.7072 48.3033C90.1208 40.3762 93.1094 33.6277 93.1094 27.0668C93.1094 23.5282 92.2562 20.0529 90.6386 17.0087Z" fill="url(#paint2_linear_180_61)"/>
<path d="M69.4375 37.3441H58.3906V26.4336C58.3906 25.3572 57.5079 24.4853 56.418 24.4853H44.582C43.4921 24.4853 42.6094 25.3572 42.6094 26.4336V37.3441H31.5625C30.4726 37.3441 29.5898 38.216 29.5898 39.2924V50.9822C29.5898 52.0587 30.4726 52.9305 31.5625 52.9305H42.6094V63.841C42.6094 64.9175 43.4921 65.7893 44.582 65.7893H56.418C57.5079 65.7893 58.3906 64.9175 58.3906 63.841V52.9305H69.4375C70.5274 52.9305 71.4102 52.0587 71.4102 50.9822V39.2924C71.4102 38.216 70.5274 37.3441 69.4375 37.3441ZM67.4648 49.0339H56.418C55.3281 49.0339 54.4453 49.9058 54.4453 50.9822V61.8927H46.5547V50.9822C46.5547 49.9058 45.6719 49.0339 44.582 49.0339H33.5352V41.2407H44.582C45.6719 41.2407 46.5547 40.3689 46.5547 39.2924V28.3819H54.4453V39.2924C54.4453 40.3689 55.3281 41.2407 56.418 41.2407H67.4648V49.0339Z" fill="url(#paint3_linear_180_61)"/>
</g>
<defs>
<linearGradient id="paint0_linear_180_61" x1="81.7666" y1="13.9645" x2="85.7119" y2="13.9645" gradientUnits="userSpaceOnUse">
<stop stop-color="#0055D5"/>
<stop offset="1" stop-color="#00C187"/>
</linearGradient>
<linearGradient id="paint1_linear_180_61" x1="0" y1="88" x2="101" y2="88" gradientUnits="userSpaceOnUse">
<stop stop-color="#0055D5"/>
<stop offset="1" stop-color="#00C187"/>
</linearGradient>
<linearGradient id="paint2_linear_180_61" x1="80.1929" y1="49.0352" x2="93.1094" y2="49.0352" gradientUnits="userSpaceOnUse">
<stop stop-color="#0055D5"/>
<stop offset="1" stop-color="#00C187"/>
</linearGradient>
<linearGradient id="paint3_linear_180_61" x1="29.5898" y1="65.7893" x2="71.4102" y2="65.7893" gradientUnits="userSpaceOnUse">
<stop stop-color="#0055D5"/>
<stop offset="1" stop-color="#00C187"/>
</linearGradient>
<clipPath id="clip0_180_61">
<rect width="101" height="88" fill="white"/>
</clipPath>
</defs>
</svg>
