<svg width="90" height="100" viewBox="0 0 90 100" fill="none" xmlns="http://www.w3.org/2000/svg">
<g clip-path="url(#clip0_180_70)">
<path d="M45 0C20.1878 0 0 20.1035 0 44.8164V67.2793C0 70.0781 2.28667 72.3555 5.09697 72.3555H6.94043V72.4629C6.94043 75.2617 9.2271 77.5391 12.0374 77.5391H15.5066C18.3169 77.5391 20.6036 75.2617 20.6036 72.4629V51.7285C20.6036 48.9297 18.3169 46.6523 15.5066 46.6523H12.0354C9.22514 46.6523 6.93847 48.9297 6.93847 51.7285V51.8359H3.25155V44.8164C3.25155 21.8906 21.9783 3.24023 44.998 3.24023C68.0177 3.24023 86.7445 21.8906 86.7445 44.8164V51.8359H83.0576V51.7285C83.0576 48.9297 80.771 46.6523 77.9607 46.6523H74.4914C71.6811 46.6523 69.3945 48.9297 69.3945 51.7285V72.4629C69.3945 75.2617 71.6811 77.5391 74.4914 77.5391H77.9607C80.771 77.5391 83.0576 75.2617 83.0576 72.4629V72.3555H83.2145C82.4085 83.6055 73.2893 92.6016 61.9559 93.2656C61.2636 91.2793 59.3672 89.8516 57.1413 89.8516H51.9365C50.0832 89.8516 48.5751 91.3535 48.5751 93.1992V96.6543C48.5751 98.5 50.0832 100.002 51.9365 100.002H57.1413C59.3966 100.002 61.3127 98.5352 61.9814 96.5098C75.1817 95.8203 85.7993 85.248 86.4896 72.1016C88.5233 71.4336 89.9961 69.5254 89.9961 67.2812V44.8164C90 20.1035 69.8122 0 45 0ZM10.192 51.7285C10.192 50.7168 11.0196 49.8926 12.0354 49.8926H15.5047C16.5205 49.8926 17.3481 50.7168 17.3481 51.7285V72.4629C17.3481 73.4746 16.5205 74.2988 15.5047 74.2988H12.0354C11.0196 74.2988 10.192 73.4746 10.192 72.4629V51.7285ZM6.94043 55.0762V69.1152H5.09697C4.0811 69.1152 3.25351 68.291 3.25351 67.2793V55.0762H6.94043ZM79.808 72.4629C79.808 73.4746 78.9804 74.2988 77.9646 74.2988H74.4953C73.4795 74.2988 72.6519 73.4746 72.6519 72.4629V51.7285C72.6519 50.7168 73.4795 49.8926 74.4953 49.8926H77.9646C78.9804 49.8926 79.808 50.7168 79.808 51.7285V72.4629ZM57.1453 96.7598H51.9404C51.8816 96.7598 51.8326 96.7109 51.8326 96.6523V93.1973C51.8326 93.1387 51.8816 93.0898 51.9404 93.0898H57.1453C58.1611 93.0898 58.9887 93.9141 58.9887 94.9258C58.9887 95.9375 58.1611 96.7598 57.1453 96.7598ZM86.7465 67.2793C86.7465 68.291 85.9189 69.1152 84.903 69.1152H83.0596V55.0762H86.7465V67.2793Z" fill="url(#paint0_linear_180_70)"/>
<path d="M78.8921 34.8418C79.759 34.8418 80.461 34.1406 80.461 33.2793C80.461 32.416 79.759 31.7168 78.8921 31.7168C78.0273 31.7168 77.3232 32.416 77.3232 33.2793C77.3232 34.1406 78.0253 34.8418 78.8921 34.8418Z" fill="url(#paint1_linear_180_70)"/>
<path d="M68.7138 20.4805C71.6948 22.2949 73.7579 24.8828 75.0228 28.3867C75.315 29.1992 76.2132 29.6211 77.029 29.3281C77.8449 29.0371 78.2685 28.1426 77.9743 27.3301C76.4583 23.1289 73.9657 20.0156 70.3494 17.8145C69.6101 17.3652 68.6452 17.5957 68.1922 18.332C67.7411 19.0684 67.9745 20.0293 68.7138 20.4805Z" fill="url(#paint2_linear_180_70)"/>
</g>
<defs>
<linearGradient id="paint0_linear_180_70" x1="0" y1="100.002" x2="89.9961" y2="100.002" gradientUnits="userSpaceOnUse">
<stop stop-color="#0055D5"/>
<stop offset="1" stop-color="#00C187"/>
</linearGradient>
<linearGradient id="paint1_linear_180_70" x1="77.3232" y1="34.8418" x2="80.461" y2="34.8418" gradientUnits="userSpaceOnUse">
<stop stop-color="#0055D5"/>
<stop offset="1" stop-color="#00C187"/>
</linearGradient>
<linearGradient id="paint2_linear_180_70" x1="67.9624" y1="29.4212" x2="78.0677" y2="29.4212" gradientUnits="userSpaceOnUse">
<stop stop-color="#0055D5"/>
<stop offset="1" stop-color="#00C187"/>
</linearGradient>
<clipPath id="clip0_180_70">
<rect width="90" height="100" fill="white"/>
</clipPath>
</defs>
</svg>
