<svg width="87" height="99" viewBox="0 0 87 99" fill="none" xmlns="http://www.w3.org/2000/svg">
<g clip-path="url(#clip0_180_90)">
<path d="M19.9646 24.3645C18.9682 24.3645 18.1611 25.2271 18.1611 26.2921C18.1611 27.3546 18.9682 28.2196 19.9646 28.2196C20.9588 28.2196 21.7681 27.3546 21.7681 26.2921C21.7681 25.2271 20.9588 24.3645 19.9646 24.3645Z" fill="url(#paint0_linear_180_90)"/>
<path d="M36.1937 60.4077H30.7833V54.625C30.7833 53.56 29.9762 52.6974 28.9798 52.6974C27.9834 52.6974 27.1763 53.56 27.1763 54.625V60.4077H21.7659C20.7695 60.4077 19.9624 61.2702 19.9624 62.3352C19.9624 63.4002 20.7695 64.2628 21.7659 64.2628H27.1763V70.0455C27.1763 71.1081 27.9834 71.973 28.9798 71.973C29.9762 71.973 30.7833 71.1081 30.7833 70.0455V64.2628H36.1937C37.1879 64.2628 37.9972 63.4002 37.9972 62.3352C37.9972 61.2702 37.1902 60.4077 36.1937 60.4077Z" fill="url(#paint1_linear_180_90)"/>
<path d="M84.8676 62.1417C80.8819 54.7615 72.0651 52.2364 65.16 56.4987L57.8334 61.0189V44.2803C57.8334 42.2106 57.1932 40.1577 56.0299 38.4976L47.0125 25.6479V20.1761C49.1113 19.3809 50.6195 17.2389 50.6195 14.7259V5.85903C50.6195 2.67132 48.1915 0.0763245 45.209 0.0763245H12.7508C9.76608 0.0763245 7.3404 2.67132 7.3404 5.85903V14.7259C7.3404 17.2389 8.84856 19.3809 10.9474 20.1785V25.6504L1.92995 38.5C0.766701 40.1577 0.126465 42.213 0.126465 44.2827V81.6077C0.126465 86.9206 4.17077 91.2456 9.14388 91.2456H38.1258C42.1702 98.4908 50.8877 100.915 57.7229 96.6958L79.5879 83.2028C86.4321 78.979 88.8736 69.5604 84.8676 62.1417ZM10.9474 5.85903C10.9474 4.79646 11.7567 3.93146 12.7508 3.93146H45.2113C46.2054 3.93146 47.0148 4.79646 47.0148 5.85903V14.7259C47.0148 15.7884 46.2054 16.6534 45.2113 16.6534H12.7508C11.7567 16.6534 10.9474 15.7884 10.9474 14.7259V5.85903ZM4.81552 40.8107L14.1936 27.4478C14.4281 27.1153 14.5543 26.7081 14.5543 26.2913V20.5086H43.4078V24.3637H27.1765C26.18 24.3637 25.373 25.2263 25.373 26.2913C25.373 27.3538 26.18 28.2188 27.1765 28.2188H44.3095L53.1466 40.8107C53.7237 41.6347 54.0822 42.6202 54.1904 43.6394H3.77175C3.87996 42.6178 4.23841 41.6323 4.81552 40.8107ZM9.14388 87.3904C6.16137 87.3904 3.73343 84.7954 3.73343 81.6077V79.6609H36.4982C35.9256 82.1595 35.9301 84.8292 36.5839 87.3904H9.14388ZM37.9139 75.825H3.73343V47.4921H54.2287V63.2428L43.2973 69.9893C41.0159 71.3964 39.1741 73.4011 37.9139 75.825ZM55.9195 93.3587C50.7435 96.5536 44.1292 94.6646 41.1399 89.1276C38.1349 83.5377 39.9564 76.5021 45.0986 73.3288L54.887 67.2883L65.7079 87.3181L55.9195 93.3587ZM77.7844 79.8657L68.8324 85.3906L58.0115 65.3607L66.9635 59.8358C72.1418 56.6409 78.7538 58.5323 81.7431 64.0692C84.7481 69.6327 82.9221 76.6948 77.7844 79.8657Z" fill="url(#paint2_linear_180_90)"/>
</g>
<defs>
<linearGradient id="paint0_linear_180_90" x1="18.1611" y1="28.2196" x2="21.7681" y2="28.2196" gradientUnits="userSpaceOnUse">
<stop stop-color="#0055D5"/>
<stop offset="1" stop-color="#00C187"/>
</linearGradient>
<linearGradient id="paint1_linear_180_90" x1="19.9624" y1="71.973" x2="37.9972" y2="71.973" gradientUnits="userSpaceOnUse">
<stop stop-color="#0055D5"/>
<stop offset="1" stop-color="#00C187"/>
</linearGradient>
<linearGradient id="paint2_linear_180_90" x1="0.126465" y1="98.7679" x2="86.8007" y2="98.7679" gradientUnits="userSpaceOnUse">
<stop stop-color="#0055D5"/>
<stop offset="1" stop-color="#00C187"/>
</linearGradient>
<clipPath id="clip0_180_90">
<rect width="87" height="99" fill="white"/>
</clipPath>
</defs>
</svg>
