<svg width="21" height="22" viewBox="0 0 21 22" fill="none" xmlns="http://www.w3.org/2000/svg">
<path d="M19.276 9.95364H11.1697V1.84722C11.1697 1.288 10.7157 0.833984 10.1563 0.833984C9.59711 0.833984 9.14309 1.288 9.14309 1.84722V9.95364H1.03667C0.477453 9.95364 0.0234375 10.4077 0.0234375 10.9669C0.0234375 11.5263 0.477453 11.9803 1.03667 11.9803H9.14309V20.0865C9.14309 20.6459 9.59711 21.0999 10.1563 21.0999C10.7157 21.0999 11.1697 20.6459 11.1697 20.0865V11.9803H19.276C19.8354 11.9803 20.2894 11.5263 20.2894 10.9669C20.2894 10.4077 19.8354 9.95364 19.276 9.95364Z" fill="#00C187"/>
</svg>
