<svg width="99" height="92" viewBox="0 0 99 92" fill="none" xmlns="http://www.w3.org/2000/svg">
<path d="M96.8452 63.779H85.2952V62.2622C85.2952 61.86 85.1214 61.4742 84.8119 61.1897C84.5025 60.9053 84.0828 60.7455 83.6452 60.7455H70.4452C70.0076 60.7455 69.5879 60.9053 69.2785 61.1897C68.969 61.4742 68.7952 61.86 68.7952 62.2622V64.8696L58.4728 62.4973C57.6592 62.3119 56.8078 62.3187 55.9978 62.5171L29.7232 68.9876C28.1966 69.3696 26.8723 70.2475 25.9959 71.4584L9.90344 62.919C8.38647 62.1145 6.58396 61.8968 4.89244 62.314C3.20091 62.7311 1.75893 63.7489 0.883719 65.1434C0.00850481 66.5378 -0.228251 68.1948 0.225535 69.7497C0.679321 71.3047 1.78648 72.6302 3.30344 73.4348L32.553 88.9573C33.3058 89.3557 34.1594 89.5649 35.028 89.564H63.0664C63.8343 89.5635 64.5917 89.3994 65.2791 89.0847L68.7952 87.4679V89.564C68.7952 89.9663 68.969 90.3521 69.2785 90.6366C69.5879 90.921 70.0076 91.0808 70.4452 91.0808H83.6452C84.0828 91.0808 84.5025 90.921 84.8119 90.6366C85.1214 90.3521 85.2952 89.9663 85.2952 89.564V88.0473H96.8452C97.2828 88.0473 97.7025 87.8875 98.0119 87.603C98.3214 87.3186 98.4952 86.9328 98.4952 86.5305V65.2958C98.4952 64.8935 98.3214 64.5077 98.0119 64.2233C97.7025 63.9388 97.2828 63.779 96.8452 63.779ZM63.804 86.3788C63.5739 86.4803 63.3216 86.5322 63.0664 86.5305H35.0296C34.74 86.5305 34.4555 86.4604 34.2046 86.3273L4.96004 70.8092C4.20536 70.4029 3.65617 69.7387 3.43236 68.9615C3.20855 68.1842 3.32829 67.3572 3.76544 66.6609C4.21338 65.9786 4.93111 65.4822 5.76832 65.2755C6.60553 65.0688 7.49726 65.1679 8.25674 65.5521L24.8788 74.3736C24.79 75.3407 24.956 76.3132 25.3628 77.2088C25.7696 78.1044 26.4052 78.8967 27.2158 79.5186C28.0263 80.1405 28.988 80.5737 30.0193 80.7814C31.0506 80.9892 32.1212 80.9655 33.1404 80.7122L52.8166 75.8661C53.2375 75.7607 53.5959 75.5062 53.8133 75.1585C54.0306 74.8108 54.0894 74.3981 53.9766 74.0107C53.8638 73.6233 53.5887 73.2927 53.2115 73.0912C52.8342 72.8898 52.3855 72.8339 51.9636 72.9357L32.2857 77.7894C31.8642 77.9013 31.4226 77.9348 30.9868 77.888C30.5511 77.8411 30.1298 77.7149 29.7477 77.5166C29.3657 77.3183 29.0305 77.052 28.7617 76.7332C28.4929 76.4145 28.296 76.0496 28.1825 75.66C28.0689 75.2705 28.041 74.864 28.1004 74.4644C28.1598 74.0648 28.3053 73.6801 28.5283 73.3328C28.7514 72.9855 29.0475 72.6825 29.3994 72.4417C29.7514 72.2008 30.152 72.0269 30.5779 71.9301L56.8492 65.4475C57.1198 65.3832 57.4036 65.3832 57.6742 65.4475L68.7952 67.9971V84.0749L63.804 86.3788ZM81.9952 88.0473H72.0952V63.779H81.9952V88.0473ZM95.1952 85.0137H85.2952V66.8125H95.1952V85.0137Z" fill="#E2B029"/>
<path d="M65.3303 13.0476L58.7303 0.913502C58.5926 0.660209 58.3805 0.447401 58.1181 0.299165C57.8556 0.150929 57.5533 0.073184 57.2453 0.0747296H11.0453C10.7387 0.0745983 10.4381 0.15301 10.1772 0.301167C9.91637 0.449324 9.7056 0.661366 9.56854 0.913502L2.96854 13.0476C2.87919 13.2658 2.82095 13.4937 2.79529 13.7256V56.1951C2.79529 56.5974 2.96913 56.9832 3.27856 57.2677C3.588 57.5521 4.00768 57.7119 4.44529 57.7119H63.8453C64.2829 57.7119 64.7026 57.5521 65.012 57.2677C65.3214 56.9832 65.4953 56.5974 65.4953 56.1951V13.7256C65.4723 13.4941 65.4168 13.2662 65.3303 13.0476ZM61.1756 12.2089H42.0323L39.5573 3.10827H56.2223L61.1756 12.2089ZM29.1953 15.2424H39.0953V29.4727L34.8828 27.5358C34.6538 27.4306 34.4013 27.3758 34.1453 27.3758C33.8893 27.3758 33.6367 27.4306 33.4077 27.5358L29.1953 29.4727V15.2424ZM36.1566 3.10827L38.6316 12.2089H29.6589L32.1339 3.10827H36.1566ZM12.065 3.10827H28.73L26.255 12.2089H7.11499L12.065 3.10827ZM62.1953 54.6784H6.09529V15.2424H25.8953V31.9269C25.8951 32.1854 25.9669 32.4397 26.1038 32.6656C26.2407 32.8915 26.4381 33.0815 26.6773 33.2175C26.9166 33.3535 27.1896 33.4311 27.4706 33.4428C27.7516 33.4545 28.0312 33.3999 28.2828 33.2844L34.1453 30.5891L40.0077 33.292C40.26 33.4078 40.5403 33.4623 40.822 33.4503C41.1037 33.4382 41.3773 33.36 41.6167 33.2231C41.8562 33.0862 42.0535 32.8952 42.1898 32.6683C42.3261 32.4413 42.3968 32.1861 42.3953 31.9269V15.2424H62.1953V54.6784Z" fill="#E2B029"/>
<path d="M17.3937 48.9905C17.7402 48.9905 18.0724 48.8646 18.3174 48.6406C18.5623 48.4166 18.7 48.1128 18.7 47.796V44.2126H21.3125C21.6589 44.2126 21.9911 44.0868 22.2361 43.8628C22.4811 43.6388 22.6187 43.335 22.6187 43.0182C22.6187 42.7014 22.4811 42.3976 22.2361 42.1736C21.9911 41.9496 21.6589 41.8237 21.3125 41.8237H18.7V39.4348H22.6187C22.9651 39.4348 23.2974 39.309 23.5424 39.085C23.7873 38.861 23.925 38.5571 23.925 38.2404C23.925 37.9236 23.7873 37.6198 23.5424 37.3957C23.2974 37.1717 22.9651 37.0459 22.6187 37.0459H17.3937C17.0473 37.0459 16.715 37.1717 16.4701 37.3957C16.2251 37.6198 16.0875 37.9236 16.0875 38.2404V47.796C16.0875 48.1128 16.2251 48.4166 16.4701 48.6406C16.715 48.8646 17.0473 48.9905 17.3937 48.9905Z" fill="#E2B029"/>
<path d="M26.4687 48.9905C26.8152 48.9905 27.1474 48.8646 27.3924 48.6406C27.6374 48.4166 27.775 48.1128 27.775 47.796V45.0093L30.6487 48.5127C30.8566 48.7661 31.166 48.9337 31.509 48.9785C31.8519 49.0233 32.2003 48.9417 32.4775 48.7516C32.7546 48.5615 32.9378 48.2785 32.9868 47.9649C33.0358 47.6513 32.9466 47.3328 32.7387 47.0793L30.2412 44.0347C31.1358 43.7823 31.9016 43.2446 32.3993 42.5194C32.897 41.7943 33.0934 40.9299 32.9529 40.0835C32.8125 39.237 32.3444 38.4649 31.6338 37.9074C30.9232 37.3499 30.0175 37.0442 29.0812 37.0459H26.4687C26.1223 37.0459 25.79 37.1717 25.5451 37.3958C25.3001 37.6198 25.1625 37.9236 25.1625 38.2404V47.796C25.1625 48.1128 25.3001 48.4166 25.5451 48.6406C25.79 48.8646 26.1223 48.9905 26.4687 48.9905ZM30.3875 40.6293C30.3875 40.9461 30.2498 41.2499 30.0049 41.4739C29.7599 41.6979 29.4277 41.8237 29.0812 41.8237H27.775V39.4348H29.0812C29.4277 39.4348 29.7599 39.5607 30.0049 39.7847C30.2498 40.0087 30.3875 40.3125 30.3875 40.6293Z" fill="#E2B029"/>
<path d="M36.7812 48.9905H42.0062C42.3527 48.9905 42.6849 48.8646 42.9299 48.6406C43.1749 48.4166 43.3125 48.1128 43.3125 47.796C43.3125 47.4792 43.1749 47.1754 42.9299 46.9514C42.6849 46.7274 42.3527 46.6016 42.0062 46.6016H38.0875V44.2126H40.7C41.0464 44.2126 41.3787 44.0868 41.6236 43.8628C41.8686 43.6388 42.0062 43.335 42.0062 43.0182C42.0062 42.7014 41.8686 42.3976 41.6236 42.1736C41.3787 41.9496 41.0464 41.8237 40.7 41.8237H38.0875V39.4348H42.0062C42.3527 39.4348 42.6849 39.309 42.9299 39.085C43.1749 38.861 43.3125 38.5571 43.3125 38.2404C43.3125 37.9236 43.1749 37.6198 42.9299 37.3957C42.6849 37.1717 42.3527 37.0459 42.0062 37.0459H36.7812C36.4348 37.0459 36.1025 37.1717 35.8576 37.3957C35.6126 37.6198 35.475 37.9236 35.475 38.2404V47.796C35.475 48.1128 35.6126 48.4166 35.8576 48.6406C36.1025 48.8646 36.4348 48.9905 36.7812 48.9905Z" fill="#E2B029"/>
<path d="M45.8562 48.9905H51.0812C51.4276 48.9905 51.7599 48.8646 52.0048 48.6406C52.2498 48.4166 52.3874 48.1128 52.3874 47.796C52.3874 47.4792 52.2498 47.1754 52.0048 46.9514C51.7599 46.7274 51.4276 46.6016 51.0812 46.6016H47.1624V44.2126H49.7749C50.1214 44.2126 50.4536 44.0868 50.6986 43.8628C50.9436 43.6388 51.0812 43.335 51.0812 43.0182C51.0812 42.7014 50.9436 42.3976 50.6986 42.1736C50.4536 41.9496 50.1214 41.8237 49.7749 41.8237H47.1624V39.4348H51.0812C51.4276 39.4348 51.7599 39.309 52.0048 39.085C52.2498 38.861 52.3874 38.5571 52.3874 38.2404C52.3874 37.9236 52.2498 37.6198 52.0048 37.3957C51.7599 37.1717 51.4276 37.0459 51.0812 37.0459H45.8562C45.5097 37.0459 45.1775 37.1717 44.9325 37.3957C44.6875 37.6198 44.5499 37.9236 44.5499 38.2404V47.796C44.5499 48.1128 44.6875 48.4166 44.9325 48.6406C45.1775 48.8646 45.5097 48.9905 45.8562 48.9905Z" fill="#E2B029"/>
</svg>
