<svg width="99" height="99" viewBox="0 0 99 99" fill="none" xmlns="http://www.w3.org/2000/svg">
<path d="M25.4368 71.3759L18.8719 77.9393C18.7282 78.083 18.6142 78.2536 18.5364 78.4414C18.4586 78.6292 18.4186 78.8305 18.4186 79.0337C18.4186 79.237 18.4586 79.4382 18.5364 79.626C18.6142 79.8138 18.7282 79.9844 18.8719 80.1281C19.0156 80.2718 19.1862 80.3858 19.374 80.4636C19.5618 80.5414 19.763 80.5814 19.9663 80.5814C20.1695 80.5814 20.3708 80.5414 20.5586 80.4636C20.7464 80.3858 20.917 80.2718 21.0607 80.1281L27.6241 73.5647C27.9059 73.273 28.0618 72.8823 28.0583 72.4767C28.0547 72.0711 27.8921 71.6831 27.6053 71.3963C27.3185 71.1095 26.9305 70.9468 26.5249 70.9433C26.1193 70.9398 25.7286 71.0957 25.4368 71.3775V71.3759Z" fill="#E2B029"/>
<path d="M86.6962 29.0472L94.5373 14.9304C95.3496 13.468 95.6636 11.7808 95.4316 10.1241C95.1996 8.46743 94.4342 6.93137 93.2514 5.74838C92.0686 4.56539 90.5327 3.79986 88.876 3.56761C87.2193 3.33536 85.5321 3.64904 84.0696 4.46118L69.9528 12.3054C68.8213 12.9303 67.7835 13.7114 66.8699 14.6257L66.4383 15.0557L12.4957 8.58669C12.2628 8.55724 12.0262 8.58182 11.8044 8.65855C11.5825 8.73527 11.3813 8.86206 11.2164 9.0291L7.93547 12.31C7.76591 12.4793 7.63799 12.6856 7.56177 12.9127C7.48556 13.1398 7.46314 13.3816 7.49629 13.6188C7.52943 13.8561 7.61723 14.0824 7.75277 14.28C7.88831 14.4775 8.06788 14.6409 8.27733 14.7572L45.8664 35.64L44.9924 36.514C44.3136 37.1917 43.6727 37.9064 43.0727 38.6548L20.94 66.2434L8.28506 63.3043C8.02927 63.2436 7.76217 63.2497 7.50943 63.3221C7.25668 63.3944 7.02679 63.5305 6.84183 63.7173L4.65454 65.9061C4.51072 66.0498 4.39663 66.2204 4.31878 66.4082C4.24093 66.596 4.20087 66.7973 4.20087 67.0006C4.20087 67.2038 4.24093 67.4051 4.31878 67.5929C4.39663 67.7807 4.51072 67.9513 4.65454 68.095L12.8685 76.3089L11.7501 77.7011C10.7278 79.0115 10.2204 80.6507 10.3235 82.3096C10.4266 83.9684 11.1331 85.5321 12.3097 86.7059C13.4864 87.8797 15.0519 88.5824 16.7109 88.6815C18.37 88.7806 20.008 88.2692 21.3159 87.2437L22.6911 86.1393L30.905 94.3532C31.0487 94.497 31.2193 94.6111 31.4071 94.6889C31.5949 94.7668 31.7961 94.8069 31.9994 94.8069C32.2027 94.8069 32.404 94.7668 32.5918 94.6889C32.7796 94.6111 32.9502 94.497 33.0938 94.3532L35.2811 92.1659C35.4668 91.9802 35.6022 91.7502 35.6744 91.4977C35.7467 91.2452 35.7535 90.9785 35.6941 90.7227L32.7551 78.0677L60.3498 55.9288C61.0975 55.3292 61.8117 54.6888 62.4891 54.0107L63.3631 53.1367L84.2459 90.7258C84.363 90.9336 84.5265 91.1116 84.7237 91.2458C84.921 91.3799 85.1466 91.4667 85.3829 91.4992C85.4541 91.5097 85.5259 91.5149 85.5979 91.5147C86.0081 91.5146 86.4015 91.3515 86.6915 91.0614L89.9725 87.7805C90.1383 87.6148 90.2644 87.4135 90.341 87.1918C90.4177 86.9702 90.4429 86.7341 90.4149 86.5012L83.9396 32.5602L84.3697 32.1301C85.2844 31.2154 86.0674 30.1778 86.6962 29.0472ZM12.8731 11.7562L63.6431 17.8478C59.4186 22.0461 50.9169 30.5028 48.1171 33.3583L11.5722 13.0479L12.8731 11.7562ZM85.9521 87.4278L65.6494 50.8829C68.5049 48.0831 76.9617 39.5814 81.1584 35.3569L87.2515 86.1269L85.9521 87.4278ZM7.93547 66.9998L8.42119 66.5156L18.7852 68.9226L14.8144 73.8803L7.93547 66.9998ZM32.4844 90.5788L31.9987 91.0645L25.1182 84.1856L30.0774 80.207L32.4844 90.5788ZM82.1808 29.9413L81.2171 30.905L81.1197 31.004L60.3003 51.8203C59.7029 52.4187 59.0728 52.9837 58.4131 53.5126L19.3994 84.8074C18.6865 85.3566 17.7984 85.6281 16.9003 85.5715C16.0022 85.5148 15.1552 85.1339 14.5169 84.4996C13.8786 83.8653 13.4924 83.0207 13.4302 82.123C13.368 81.2253 13.634 80.3355 14.1787 79.6192L45.4781 40.5869C46.0111 39.9273 46.5791 39.2968 47.1797 38.6982L69.0572 16.8176C69.7676 16.1048 70.5741 15.4946 71.4533 15.0047L85.57 7.16047C86.445 6.67484 87.4544 6.48736 88.4454 6.62637C89.4364 6.76537 90.3552 7.22332 91.0629 7.93094C91.7705 8.63857 92.2284 9.55738 92.3675 10.5484C92.5065 11.5394 92.319 12.5488 91.8333 13.4238L83.9953 27.5452C83.5047 28.4244 82.8946 29.2313 82.1824 29.9428L82.1808 29.9413Z" fill="#E2B029"/>
<path d="M57.1555 81.2202L63.7189 74.6568C64.0007 74.3651 64.1566 73.9744 64.153 73.5688C64.1495 73.1632 63.9868 72.7752 63.7 72.4884C63.4132 72.2016 63.0253 72.0389 62.6197 72.0354C62.2141 72.0319 61.8233 72.1878 61.5316 72.4696L54.9682 79.033C54.8205 79.1756 54.7026 79.3463 54.6215 79.5351C54.5405 79.7238 54.4978 79.9268 54.496 80.1322C54.4942 80.3376 54.5334 80.5412 54.6112 80.7313C54.6889 80.9215 54.8038 81.0942 54.949 81.2394C55.0943 81.3846 55.267 81.4995 55.4571 81.5773C55.6472 81.6551 55.8509 81.6942 56.0563 81.6924C56.2617 81.6906 56.4647 81.648 56.6534 81.5669C56.8421 81.4858 57.0128 81.368 57.1555 81.2202Z" fill="#E2B029"/>
<path d="M62.6252 84.5011L56.0634 91.0645C55.9156 91.2072 55.7978 91.3779 55.7167 91.5666C55.6357 91.7553 55.593 91.9583 55.5912 92.1637C55.5894 92.3691 55.6286 92.5728 55.7063 92.7629C55.7841 92.953 55.899 93.1257 56.0442 93.271C56.1895 93.4162 56.3622 93.5311 56.5523 93.6088C56.7424 93.6866 56.9461 93.7257 57.1515 93.724C57.3569 93.7222 57.5598 93.6795 57.7486 93.5984C57.9373 93.5174 58.108 93.3995 58.2507 93.2518L64.8141 86.6899C65.1043 86.3999 65.2675 86.0064 65.2676 85.5961C65.2677 85.1857 65.1049 84.7921 64.8148 84.5019C64.5248 84.2116 64.1313 84.0485 63.721 84.0483C63.3106 84.0482 62.917 84.2111 62.6268 84.5011H62.6252Z" fill="#E2B029"/>
<path d="M61.5316 63.7189C61.8134 63.4272 61.9693 63.0364 61.9658 62.6308C61.9622 62.2253 61.7995 61.8373 61.5127 61.5505C61.2259 61.2637 60.838 61.101 60.4324 61.0975C60.0268 61.0939 59.636 61.2499 59.3443 61.5316L52.7809 68.095C52.6332 68.2377 52.5153 68.4084 52.4343 68.5971C52.3532 68.7859 52.3105 68.9888 52.3087 69.1942C52.307 69.3996 52.3461 69.6033 52.4239 69.7934C52.5016 69.9835 52.6165 70.1562 52.7617 70.3015C52.907 70.4467 53.0797 70.5616 53.2698 70.6394C53.4599 70.7171 53.6636 70.7563 53.869 70.7545C54.0744 70.7527 54.2774 70.71 54.4661 70.629C54.6548 70.5479 54.8255 70.43 54.9682 70.2823L61.5316 63.7189Z" fill="#E2B029"/>
<path d="M50.5937 83.4075L49.5 84.5011C49.2098 84.7912 49.0466 85.1847 49.0465 85.595C49.0463 86.0053 49.2092 86.3989 49.4992 86.6892C49.7893 86.9794 50.1828 87.1426 50.5931 87.1427C51.0034 87.1429 51.397 86.98 51.6873 86.69L52.7809 85.5948C53.0627 85.303 53.2186 84.9123 53.2151 84.5067C53.2116 84.1011 53.0489 83.7131 52.7621 83.4263C52.4753 83.1395 52.0873 82.9768 51.6817 82.9733C51.2761 82.9698 50.8854 83.1257 50.5937 83.4075Z" fill="#E2B029"/>
<path d="M50.5952 74.6568C50.8852 74.3664 51.048 73.9726 51.0477 73.5621C51.0474 73.1516 50.8841 72.758 50.5936 72.468C50.3032 72.1779 49.9094 72.0152 49.4989 72.0154C49.0884 72.0157 48.6949 72.1791 48.4048 72.4695L47.3112 73.5647C47.0211 73.855 46.8582 74.2486 46.8584 74.6589C46.8585 75.0693 47.0217 75.4627 47.3119 75.7528C47.6022 76.0428 47.9958 76.2057 48.4061 76.2056C48.8165 76.2054 49.2099 76.0423 49.5 75.752L50.5952 74.6568Z" fill="#E2B029"/>
<path d="M24.3432 35.2811L17.7798 41.843C17.632 41.9857 17.5142 42.1564 17.4331 42.3451C17.352 42.5338 17.3094 42.7368 17.3076 42.9422C17.3058 43.1476 17.3449 43.3513 17.4227 43.5414C17.5005 43.7315 17.6154 43.9042 17.7606 44.0494C17.9058 44.1947 18.0785 44.3095 18.2687 44.3873C18.4588 44.4651 18.6625 44.5042 18.8678 44.5025C19.0732 44.5007 19.2762 44.458 19.4649 44.3769C19.6537 44.2959 19.8244 44.178 19.9671 44.0303L26.5304 37.4684C26.8122 37.1767 26.9681 36.7859 26.9646 36.3804C26.9611 35.9748 26.7984 35.5868 26.5116 35.3C26.2248 35.0132 25.8368 34.8505 25.4312 34.847C25.0257 34.8435 24.6349 34.9994 24.3432 35.2811V35.2811Z" fill="#E2B029"/>
<path d="M6.84184 43.3898C7.04505 43.3904 7.24635 43.3506 7.43408 43.2728C7.62181 43.195 7.79223 43.0807 7.93548 42.9366L14.4989 36.3748C14.7891 36.0845 14.9522 35.6908 14.9522 35.2803C14.9522 34.8699 14.7891 34.4762 14.4989 34.1859C14.2086 33.8957 13.8149 33.7326 13.4045 33.7326C12.994 33.7326 12.6003 33.8957 12.31 34.1859L5.7482 40.7493C5.53193 40.9657 5.38466 41.2412 5.325 41.5413C5.26534 41.8413 5.29597 42.1523 5.41303 42.4349C5.53008 42.7175 5.72829 42.9591 5.98262 43.129C6.23694 43.299 6.53595 43.3898 6.84184 43.3898Z" fill="#E2B029"/>
<path d="M30.905 46.2175L37.4684 39.6557C37.7502 39.3639 37.9061 38.9732 37.9026 38.5676C37.899 38.162 37.7364 37.7741 37.4496 37.4872C37.1627 37.2004 36.7748 37.0378 36.3692 37.0342C35.9636 37.0307 35.5729 37.1866 35.2811 37.4684L28.7177 44.0302C28.57 44.1729 28.4521 44.3436 28.3711 44.5324C28.29 44.7211 28.2473 44.9241 28.2455 45.1295C28.2438 45.3348 28.2829 45.5385 28.3607 45.7286C28.4385 45.9187 28.5533 46.0915 28.6986 46.2367C28.8438 46.3819 29.0165 46.4968 29.2066 46.5746C29.3967 46.6524 29.6004 46.6915 29.8058 46.6897C30.0112 46.6879 30.2142 46.6453 30.4029 46.5642C30.5916 46.4831 30.7623 46.3653 30.905 46.2175Z" fill="#E2B029"/>
<path d="M13.4052 46.2191L12.31 47.3127C12.1664 47.4564 12.0525 47.627 11.9748 47.8148C11.8971 48.0025 11.8572 48.2037 11.8572 48.4069C11.8574 48.8172 12.0205 49.2107 12.3108 49.5008C12.6011 49.7908 12.9946 49.9537 13.405 49.9535C13.8153 49.9534 14.2088 49.7902 14.4988 49.5L15.5925 48.4063C15.7402 48.2637 15.8581 48.093 15.9391 47.9042C16.0202 47.7155 16.0629 47.5125 16.0647 47.3071C16.0665 47.1017 16.0273 46.8981 15.9495 46.7079C15.8718 46.5178 15.7569 46.3451 15.6117 46.1999C15.4664 46.0547 15.2937 45.9398 15.1036 45.862C14.9135 45.7842 14.7098 45.7451 14.5044 45.7469C14.299 45.7487 14.096 45.7913 13.9073 45.8724C13.7186 45.9535 13.5479 46.0713 13.4052 46.2191V46.2191Z" fill="#E2B029"/>
<path d="M24.3432 48.4048L23.248 49.5C22.9577 49.7901 22.7946 50.1835 22.7944 50.5939C22.7943 51.0042 22.9572 51.3978 23.2472 51.6881C23.5373 51.9783 23.9307 52.1415 24.3411 52.1416C24.7514 52.1418 25.145 51.9789 25.4353 51.6888L26.5304 50.5952C26.8209 50.3051 26.9843 49.9116 26.9845 49.5011C26.9848 49.0906 26.822 48.6968 26.532 48.4064C26.2419 48.1159 25.8484 47.9526 25.4379 47.9523C25.0274 47.952 24.6336 48.1148 24.3432 48.4048Z" fill="#E2B029"/>
</svg>
