<svg width="99" height="99" viewBox="0 0 99 99" fill="none" xmlns="http://www.w3.org/2000/svg">
<path d="M35.7328 67.6417C35.3019 67.2107 34.7903 66.8688 34.2272 66.6356C33.6641 66.4023 33.0606 66.2823 32.4511 66.2823C31.8416 66.2823 31.2381 66.4023 30.675 66.6356C30.112 66.8688 29.6004 67.2107 29.1694 67.6417L26.9821 69.829C26.8385 69.9728 26.6679 70.0869 26.4801 70.1648C26.2923 70.2426 26.091 70.2827 25.8877 70.2827C25.6844 70.2827 25.4832 70.2426 25.2954 70.1648C25.1076 70.0869 24.937 69.9728 24.7933 69.829L22.606 67.6417C22.4622 67.4981 22.3481 67.3275 22.2703 67.1397C22.1924 66.9519 22.1524 66.7506 22.1524 66.5473C22.1524 66.344 22.1924 66.1428 22.2703 65.955C22.3481 65.7672 22.4622 65.5966 22.606 65.4529L26.9806 61.0784C27.2624 60.7866 27.4183 60.3959 27.4148 59.9903C27.4112 59.5847 27.2486 59.1967 26.9618 58.9099C26.6749 58.6231 26.287 58.4604 25.8814 58.4569C25.4758 58.4534 25.0851 58.6093 24.7933 58.8911L20.4188 63.2672C19.9877 63.6981 19.6459 64.2097 19.4126 64.7728C19.1793 65.3359 19.0593 65.9394 19.0593 66.5489C19.0593 67.1584 19.1793 67.7619 19.4126 68.3249C19.6459 68.888 19.9877 69.3996 20.4188 69.8306L22.606 72.0179C23.037 72.4489 23.5486 72.7908 24.1117 73.024C24.6747 73.2573 25.2782 73.3773 25.8877 73.3773C26.4972 73.3773 27.1007 73.2573 27.6638 73.024C28.2269 72.7908 28.7385 72.4489 29.1694 72.0179L31.3567 69.8306C31.5004 69.6868 31.671 69.5727 31.8588 69.4948C32.0465 69.417 32.2478 69.3769 32.4511 69.3769C32.6544 69.3769 32.8557 69.417 33.0435 69.4948C33.2313 69.5727 33.4019 69.6868 33.5455 69.8306L35.7328 72.0163C35.8766 72.16 35.9907 72.3306 36.0686 72.5184C36.1464 72.7061 36.1865 72.9074 36.1865 73.1107C36.1865 73.314 36.1464 73.5153 36.0686 73.7031C35.9907 73.8909 35.8766 74.0615 35.7328 74.2051L31.3583 78.5812C31.2105 78.7239 31.0927 78.8946 31.0116 79.0834C30.9305 79.2721 30.8879 79.4751 30.8861 79.6805C30.8843 79.8858 30.9234 80.0895 31.0012 80.2796C31.079 80.4697 31.1938 80.6425 31.3391 80.7877C31.4843 80.9329 31.657 81.0478 31.8471 81.1256C32.0372 81.2034 32.2409 81.2425 32.4463 81.2407C32.6517 81.2389 32.8547 81.1963 33.0434 81.1152C33.2321 81.0341 33.4028 80.9163 33.5455 80.7685L37.9216 76.394C38.3526 75.963 38.6945 75.4514 38.9278 74.8883C39.1611 74.3253 39.2811 73.7218 39.2811 73.1123C39.2811 72.5028 39.1611 71.8993 38.9278 71.3362C38.6945 70.7731 38.3526 70.2615 37.9216 69.8306L35.7328 67.6417Z" fill="#E2B029"/>
<path d="M53.3904 58.2059L36.9827 48.3616C36.687 48.1842 36.3406 48.1107 35.9984 48.1528C35.6562 48.1948 35.3379 48.35 35.0939 48.5936L32.9051 50.7824C32.6615 51.0264 32.5063 51.3447 32.4643 51.6869C32.4223 52.0291 32.4957 52.3755 32.6731 52.6711L42.5174 69.0789C42.622 69.2531 42.7599 69.4049 42.9232 69.5258C43.0865 69.6467 43.2721 69.7343 43.4692 69.7835C43.6664 69.8327 43.8713 69.8426 44.0722 69.8126C44.2732 69.7826 44.4663 69.7133 44.6405 69.6087C44.8147 69.5041 44.9666 69.3662 45.0875 69.2028C45.2083 69.0395 45.2959 68.854 45.3451 68.6569C45.3943 68.4597 45.4042 68.2548 45.3742 68.0538C45.3442 67.8529 45.2749 67.6598 45.1703 67.4856L42.5097 63.0522L47.3638 58.1981L51.7971 60.8588C51.9713 60.9634 52.1644 61.0327 52.3654 61.0627C52.5663 61.0926 52.7712 61.0828 52.9684 61.0336C53.1655 60.9844 53.351 60.8968 53.5144 60.7759C53.6777 60.655 53.8156 60.5032 53.9202 60.329C54.0248 60.1548 54.0941 59.9617 54.1241 59.7607C54.1541 59.5597 54.1442 59.3548 54.095 59.1577C54.0458 58.9605 53.9582 58.775 53.8374 58.6117C53.7165 58.4484 53.5646 58.3105 53.3904 58.2059ZM40.8684 60.3189L35.9463 52.1205L36.4258 51.6409L44.6242 56.5631L40.8684 60.3189Z" fill="#E2B029"/>
<path d="M62.8913 47.0467L57.4215 52.5164L45.3899 40.4848C45.2472 40.3371 45.0765 40.2192 44.8878 40.1382C44.6991 40.0571 44.4961 40.0144 44.2907 40.0126C44.0853 40.0108 43.8816 40.05 43.6915 40.1278C43.5014 40.2055 43.3287 40.3204 43.1835 40.4656C43.0382 40.6109 42.9234 40.7836 42.8456 40.9737C42.7678 41.1638 42.7287 41.3675 42.7305 41.5729C42.7323 41.7783 42.7749 41.9813 42.856 42.17C42.9371 42.3587 43.0549 42.5294 43.2027 42.6721L56.3279 55.7973C56.618 56.0873 57.0113 56.2502 57.4215 56.2502C57.8317 56.2502 58.2251 56.0873 58.5152 55.7973L65.0785 49.2339C65.3603 48.9422 65.5162 48.5515 65.5127 48.1459C65.5092 47.7403 65.3465 47.3523 65.0597 47.0655C64.7729 46.7787 64.3849 46.616 63.9793 46.6125C63.5738 46.609 63.183 46.7649 62.8913 47.0467Z" fill="#E2B029"/>
<path d="M73.1888 36.7492L68.8127 41.1253L64.4382 36.7492L66.6255 34.5619C66.9072 34.2701 67.0631 33.8794 67.0596 33.4738C67.0561 33.0682 66.8934 32.6802 66.6066 32.3934C66.3198 32.1066 65.9318 31.9439 65.5262 31.9404C65.1207 31.9369 64.7299 32.0928 64.4382 32.3746L62.2509 34.5619L57.8748 30.1873L62.2509 25.8112C62.3986 25.6685 62.5165 25.4978 62.5976 25.3091C62.6786 25.1204 62.7213 24.9174 62.7231 24.712C62.7249 24.5066 62.6857 24.3029 62.608 24.1128C62.5302 23.9227 62.4153 23.75 62.2701 23.6047C62.1248 23.4595 61.9521 23.3446 61.762 23.2669C61.5719 23.1891 61.3682 23.1499 61.1628 23.1517C60.9574 23.1535 60.7544 23.1962 60.5657 23.2773C60.377 23.3583 60.2063 23.4762 60.0636 23.6239L54.5939 29.0937C54.3039 29.3837 54.141 29.7771 54.141 30.1873C54.141 30.5975 54.3039 30.9909 54.5939 31.2809L67.7191 44.4062C68.0092 44.6962 68.4026 44.8591 68.8127 44.8591C69.2229 44.8591 69.6163 44.6962 69.9064 44.4062L75.3761 38.9364C75.5239 38.7937 75.6417 38.623 75.7228 38.4343C75.8039 38.2456 75.8465 38.0426 75.8483 37.8372C75.8501 37.6318 75.811 37.4281 75.7332 37.238C75.6554 37.0479 75.5405 36.8752 75.3953 36.73C75.2501 36.5847 75.0773 36.4699 74.8872 36.3921C74.6971 36.3143 74.4934 36.2752 74.2881 36.277C74.0827 36.2788 73.8797 36.3214 73.691 36.4025C73.5022 36.4836 73.3315 36.6014 73.1888 36.7492Z" fill="#E2B029"/>
<path d="M90.1225 27.2714L91.8426 16.0875C92.0253 14.8905 91.9245 13.6674 91.5481 12.5165C91.1718 11.3657 90.5305 10.3192 89.6759 9.46145C88.8213 8.60369 87.7772 7.95855 86.6278 7.57798C85.4783 7.1974 84.2555 7.09202 83.0579 7.27032L59.236 10.8281C56.2876 11.2741 53.5585 12.6495 51.446 14.7541L5.10468 61.0784C3.65423 62.5288 2.83939 64.4961 2.83939 66.5473C2.83939 68.5986 3.65423 70.5658 5.10468 72.0163L26.9837 93.8953C28.4342 95.3458 30.4014 96.1606 32.4527 96.1606C34.5039 96.1606 36.4712 95.3458 37.9216 93.8953L63.2904 68.5266C65.9433 81.494 71.9111 89.7188 78.8906 89.7188C88.4317 89.7188 95.9062 74.0953 95.9062 54.1406C95.9062 43.7023 93.7948 33.9678 90.1225 27.2714ZM35.7328 91.7049C34.8489 92.5494 33.6736 93.0207 32.4511 93.0207C31.2287 93.0207 30.0533 92.5494 29.1694 91.7049L7.29505 69.829C6.86405 69.3981 6.52215 68.8865 6.28889 68.3234C6.05563 67.7603 5.93557 67.1568 5.93557 66.5473C5.93557 65.9379 6.05563 65.3343 6.28889 64.7713C6.52215 64.2082 6.86405 63.6966 7.29505 63.2656L53.6286 16.9321C55.2723 15.2963 57.3948 14.2271 59.6877 13.8801L83.5096 10.3223C83.7415 10.2872 83.9758 10.2696 84.2103 10.2697C84.8796 10.2705 85.5408 10.416 86.1486 10.6963C86.7563 10.9765 87.2962 11.385 87.7313 11.8935C88.1664 12.4021 88.4864 12.9987 88.6692 13.6425C88.852 14.2864 88.8935 14.9621 88.7906 15.6234L87.5918 23.4228C86.718 22.3366 85.7054 21.3698 84.58 20.5471C84.5695 18.9281 83.9201 17.3788 82.7733 16.236C81.5938 15.1121 80.0271 14.4851 78.3979 14.4851C76.7687 14.4851 75.202 15.1121 74.0226 16.236C73.3913 16.8525 72.8992 17.5968 72.5792 18.4191C72.2592 19.2413 72.1188 20.1225 72.1674 21.0035C72.216 21.8845 72.4524 22.745 72.8609 23.5271C73.2693 24.3092 73.8403 24.9949 74.5355 25.5382C75.2307 26.0815 76.0341 26.4699 76.8917 26.6772C77.7494 26.8845 78.6414 26.906 79.508 26.7402C80.3747 26.5744 81.1958 26.2252 81.9164 25.716C82.637 25.2068 83.2403 24.5494 83.6859 23.7878C84.9597 24.9732 86.0471 26.3443 86.9112 27.8546L85.1446 39.3386C84.7985 41.6164 83.7304 43.723 82.0973 45.3482L35.7328 91.7049ZM78.8906 21.6563C79.6449 21.6613 80.3912 21.8115 81.0887 22.0987C80.9521 22.3536 80.7808 22.5883 80.5798 22.7963C80.1287 23.2588 79.5457 23.5706 78.9106 23.6891C78.2754 23.8075 77.6192 23.7267 77.0318 23.4578C76.4443 23.1889 75.9543 22.745 75.6289 22.1868C75.3034 21.6287 75.1584 20.9837 75.2137 20.3399C75.269 19.6962 75.5219 19.0853 75.9378 18.5909C76.3536 18.0965 76.9122 17.7426 77.5369 17.5779C78.1616 17.4131 78.822 17.4454 79.4276 17.6704C80.0332 17.8954 80.5545 18.3021 80.9201 18.8348C80.2567 18.6644 79.5755 18.573 78.8906 18.5625C78.4804 18.5625 78.0869 18.7255 77.7968 19.0156C77.5067 19.3057 77.3437 19.6991 77.3437 20.1094C77.3437 20.5196 77.5067 20.9131 77.7968 21.2032C78.0869 21.4933 78.4804 21.6563 78.8906 21.6563ZM78.8906 86.625C73.3002 86.625 68.0362 78.1172 65.951 65.8628L84.2768 47.5355C86.3782 45.4442 87.7514 42.7326 88.1935 39.8011L89.2763 32.8046C91.722 39.6478 92.9197 46.8743 92.8125 54.1406C92.8125 71.7487 86.4363 86.625 78.8906 86.625Z" fill="#E2B029"/>
</svg>
