<svg width="15" height="15" viewBox="0 0 15 15" fill="none" xmlns="http://www.w3.org/2000/svg">
<path d="M14.7602 6.91728L9.34321 1.50013C9.18858 1.3455 8.98249 1.26062 8.76273 1.26062C8.54273 1.26062 8.33676 1.34562 8.18213 1.50013L7.6903 1.99208C7.53579 2.14647 7.45067 2.35268 7.45067 2.57256C7.45067 2.79231 7.53579 3.00548 7.6903 3.15987L10.8505 6.32704H0.810359C0.35768 6.32704 0 6.68143 0 7.13423V7.82971C0 8.28251 0.35768 8.67263 0.810359 8.67263H10.8864L7.69042 11.8575C7.53591 12.0121 7.45079 12.2127 7.45079 12.4326C7.45079 12.6522 7.53591 12.8558 7.69042 13.0103L8.18225 13.5006C8.33688 13.6553 8.54286 13.7395 8.76285 13.7395C8.98261 13.7395 9.1887 13.6542 9.34334 13.4995L14.7604 8.08252C14.9154 7.92739 15.0006 7.72032 15 7.5002C15.0005 7.27935 14.9154 7.07216 14.7602 6.91728Z" fill="black"/>
</svg>
