<svg width="30" height="30" viewBox="0 0 30 30" fill="none" xmlns="http://www.w3.org/2000/svg">
<g clip-path="url(#clip0_93_663)">
<path d="M17.8711 15C17.8711 16.5857 16.5857 17.8711 15 17.8711C13.4143 17.8711 12.1289 16.5857 12.1289 15C12.1289 13.4143 13.4143 12.1289 15 12.1289C16.5857 12.1289 17.8711 13.4143 17.8711 15Z" fill="black"/>
<path d="M21.7154 9.91991C21.5774 9.54591 21.3572 9.2074 21.0711 8.92953C20.7932 8.64343 20.4549 8.42325 20.0807 8.28523C19.7772 8.16736 19.3213 8.02705 18.4815 7.98883C17.5731 7.9474 17.3007 7.93848 15.0009 7.93848C12.7009 7.93848 12.4285 7.94717 11.5203 7.9886C10.6805 8.02705 10.2244 8.16736 9.92111 8.28523C9.54689 8.42325 9.20837 8.64343 8.93074 8.92953C8.64464 9.2074 8.42445 9.54568 8.28621 9.91991C8.16833 10.2234 8.02803 10.6796 7.98981 11.5193C7.94838 12.4275 7.93945 12.6999 7.93945 14.9999C7.93945 17.2997 7.94838 17.5721 7.98981 18.4805C8.02803 19.3203 8.16833 19.7762 8.28621 20.0797C8.42445 20.454 8.64441 20.7923 8.93051 21.0701C9.20837 21.3562 9.54666 21.5764 9.92088 21.7144C10.2244 21.8325 10.6805 21.9728 11.5203 22.011C12.4285 22.0525 12.7007 22.0612 15.0007 22.0612C17.3009 22.0612 17.5733 22.0525 18.4813 22.011C19.3211 21.9728 19.7772 21.8325 20.0807 21.7144C20.8319 21.4247 21.4256 20.8309 21.7154 20.0797C21.8333 19.7762 21.9736 19.3203 22.012 18.4805C22.0535 17.5721 22.0621 17.2997 22.0621 14.9999C22.0621 12.6999 22.0535 12.4275 22.012 11.5193C21.9738 10.6796 21.8335 10.2234 21.7154 9.91991ZM15.0009 19.4226C12.5581 19.4226 10.5778 17.4426 10.5778 14.9997C10.5778 12.5569 12.5581 10.5768 15.0009 10.5768C17.4435 10.5768 19.4238 12.5569 19.4238 14.9997C19.4238 17.4426 17.4435 19.4226 15.0009 19.4226ZM19.5987 11.4356C19.0279 11.4356 18.5651 10.9728 18.5651 10.4019C18.5651 9.8311 19.0279 9.3683 19.5987 9.3683C20.1695 9.3683 20.6323 9.8311 20.6323 10.4019C20.6321 10.9728 20.1695 11.4356 19.5987 11.4356Z" fill="black"/>
<path d="M15 0C6.717 0 0 6.717 0 15C0 23.283 6.717 30 15 30C23.283 30 30 23.283 30 15C30 6.717 23.283 0 15 0ZM23.5613 18.5511C23.5197 19.468 23.3739 20.094 23.161 20.6419C22.7135 21.7989 21.7989 22.7135 20.6419 23.161C20.0942 23.3739 19.468 23.5194 18.5513 23.5613C17.6328 23.6032 17.3394 23.6133 15.0002 23.6133C12.6608 23.6133 12.3676 23.6032 11.4489 23.5613C10.5322 23.5194 9.90601 23.3739 9.35829 23.161C8.78334 22.9447 8.26286 22.6057 7.83257 22.1674C7.39449 21.7374 7.05551 21.2167 6.83922 20.6419C6.62636 20.0942 6.48056 19.468 6.4389 18.5513C6.39656 17.6326 6.38672 17.3392 6.38672 15C6.38672 12.6608 6.39656 12.3674 6.43867 11.4489C6.48033 10.532 6.6259 9.90601 6.83876 9.35806C7.05505 8.78334 7.39426 8.26263 7.83257 7.83257C8.26263 7.39426 8.78334 7.05528 9.35806 6.83899C9.90601 6.62613 10.532 6.48056 11.4489 6.43867C12.3674 6.39679 12.6608 6.38672 15 6.38672C17.3392 6.38672 17.6326 6.39679 18.5511 6.4389C19.468 6.48056 20.094 6.62613 20.6419 6.83876C21.2167 7.05505 21.7374 7.39426 22.1677 7.83257C22.6057 8.26286 22.9449 8.78334 23.161 9.35806C23.3741 9.90601 23.5197 10.532 23.5616 11.4489C23.6034 12.3674 23.6133 12.6608 23.6133 15C23.6133 17.3392 23.6034 17.6326 23.5613 18.5511Z" fill="black"/>
</g>
<defs>
<clipPath id="clip0_93_663">
<rect width="30" height="30" fill="white"/>
</clipPath>
</defs>
</svg>
