<svg width="70" height="70" viewBox="0 0 70 70" fill="none" xmlns="http://www.w3.org/2000/svg">
<g clip-path="url(#clip0_347_456)">
<path d="M35.0002 11.691C34.3949 11.691 33.9041 12.1817 33.9041 12.7871V24.5512H27.9855C27.3803 24.5512 26.8895 25.0418 26.8895 25.6472C26.8895 26.2526 27.3801 26.7433 27.9855 26.7433H33.9041V39.7496H19.7428C19.7787 38.1932 19.8895 36.6454 20.0762 35.1343C20.1504 34.5335 19.7236 33.9864 19.123 33.9122C18.5219 33.8376 17.9751 34.2647 17.9009 34.8654C17.7032 36.4648 17.5867 38.1031 17.5505 39.7495H8.06041C8.25838 34.8086 9.79332 30.0542 12.5307 25.9371C12.8658 25.433 12.7288 24.7528 12.2249 24.4176C11.7209 24.0825 11.0406 24.2195 10.7054 24.7234C7.52611 29.5052 5.8457 35.08 5.8457 40.8456C5.8457 56.9214 18.9242 70 35.0002 70C51.0761 70 64.1546 56.9214 64.1546 40.8456C64.1546 24.7698 51.0761 11.691 35.0002 11.691ZM8.06191 41.9415H17.5499C17.6508 46.5607 18.3866 50.9943 19.6881 54.9478H12.0292C9.67916 51.1342 8.25291 46.6944 8.06191 41.9415ZM13.5335 57.1399H20.4883C21.0718 58.591 21.7364 59.9634 22.4799 61.238C23.7081 63.3436 25.0962 65.0961 26.6017 66.4669C21.3532 64.7424 16.8112 61.4476 13.5335 57.1399ZM33.9041 67.738C30.343 67.284 26.9929 64.6242 24.3733 60.1336C23.8235 59.1912 23.3195 58.1903 22.8623 57.14H33.9041V67.738ZM33.9041 54.9478H22.0019C20.6279 51.0486 19.8482 46.6017 19.7423 41.9415H33.9041V54.9478ZM61.9384 39.7495H52.4504C52.3495 35.1303 51.6137 30.6968 50.3122 26.7432H57.9712C60.3211 30.5568 61.7474 34.9966 61.9384 39.7495ZM56.4668 24.5512H49.512C48.9285 23.1 48.2639 21.7276 47.5203 20.453C46.292 18.3474 44.9039 16.5949 43.3985 15.2241C48.6471 16.9488 53.1891 20.2436 56.4668 24.5512ZM36.0962 13.9531C39.6573 14.4072 43.0074 17.0669 45.627 21.5576C46.1768 22.5001 46.6809 23.5009 47.138 24.5512H36.0962V13.9531ZM36.0962 26.7433H47.9984C49.3724 30.6425 50.152 35.0892 50.258 39.7496H36.0962V26.7433ZM57.971 54.9478H56.0435C55.4382 54.9478 54.9474 55.4385 54.9474 56.0439C54.9474 56.6493 55.4381 57.14 56.0435 57.14H56.4664C53.1837 61.4543 48.6329 64.7526 43.3742 66.475C44.5796 65.3839 45.7106 64.0523 46.7406 62.4939C47.0743 61.9888 46.9356 61.3089 46.4305 60.9752C45.9258 60.6416 45.2456 60.7803 44.9118 61.2853C42.414 65.0648 39.3186 67.3172 36.0961 67.7357V57.14H42.0149C42.6202 57.14 43.111 56.6493 43.111 56.0439C43.111 55.4387 42.6203 54.9478 42.0149 54.9478H36.0961V41.9415H50.2581C50.2042 44.2901 49.9777 46.6048 49.5812 48.8373C49.4752 49.4334 49.8727 50.0023 50.4686 50.1081C50.5336 50.1196 50.598 50.1252 50.6616 50.1252C51.1829 50.1252 51.6451 49.7518 51.7393 49.2207C52.1579 46.8626 52.3967 44.4188 52.4511 41.9415H61.9381C61.7473 46.6944 60.321 51.1342 57.971 54.9478Z" fill="#C09175"/>
<path d="M19.8015 0C13.3955 0 8.18359 5.21186 8.18359 11.6179C8.18359 15.9746 11.0105 19.4513 13.7442 22.8133C15.7426 25.2711 17.8091 27.8126 18.7617 30.6703C18.9108 31.1179 19.3297 31.4196 19.8014 31.4196C20.2731 31.4196 20.692 31.1177 20.8412 30.6703C21.7937 27.8126 23.8602 25.2712 25.8585 22.8134C28.5924 19.4513 31.4194 15.9746 31.4194 11.6179C31.4195 5.21186 26.2076 0 19.8015 0ZM24.1581 21.4304C22.5842 23.3661 20.9705 25.3505 19.8015 27.567C18.6326 25.3505 17.0189 23.3661 15.445 21.4304C12.838 18.2243 10.3756 15.1959 10.3756 11.6179C10.3756 6.42059 14.604 2.19201 19.8015 2.19201C24.999 2.19201 29.2275 6.42045 29.2275 11.6179C29.2275 15.1959 26.765 18.2242 24.1581 21.4304Z" fill="#C09175"/>
<path d="M20.8976 11.4045V8.18507C21.7223 8.41981 22.2129 8.88876 22.2129 9.24327C22.2129 9.84852 22.7035 10.3393 23.3089 10.3393C23.9143 10.3393 24.405 9.84866 24.405 9.24327C24.405 7.61782 22.9328 6.29356 20.8978 5.9396V5.77253C20.8978 5.16727 20.4071 4.67645 19.8017 4.67645C19.1963 4.67645 18.7056 5.16714 18.7056 5.77253V5.9396C16.6706 6.2937 15.1984 7.61782 15.1984 9.24327C15.1984 11.5329 17.0922 12.45 18.7056 13.0004V16.22C17.8809 15.9853 17.3904 15.5163 17.3904 15.1618C17.3904 14.5566 16.8997 14.0657 16.2943 14.0657C15.6889 14.0657 15.1982 14.5564 15.1982 15.1618C15.1982 16.7873 16.6704 18.1115 18.7055 18.4655V18.6326C18.7055 19.2378 19.1962 19.7286 19.8016 19.7286C20.407 19.7286 20.8976 19.238 20.8976 18.6326V18.4655C22.9327 18.1114 24.4049 16.7873 24.4049 15.1618C24.4049 12.8721 22.5111 11.9551 20.8976 11.4045ZM18.7055 10.6456C17.6193 10.1756 17.3903 9.77839 17.3903 9.24327C17.3903 8.88876 17.8808 8.41981 18.7055 8.18507V10.6456ZM20.8976 16.22V13.7595C21.9839 14.2295 22.2129 14.6267 22.2129 15.1618C22.2129 15.5163 21.7223 15.9853 20.8976 16.22Z" fill="#C09175"/>
<path d="M49.029 52.6096C47.1353 52.6096 45.5947 54.1502 45.5947 56.0439C45.5947 57.9375 47.1353 59.4781 49.029 59.4781C50.9227 59.4781 52.4632 57.9375 52.4632 56.0439C52.4632 54.1502 50.9227 52.6096 49.029 52.6096ZM49.029 57.286C48.344 57.286 47.7867 56.7287 47.7867 56.0437C47.7867 55.3588 48.344 54.8015 49.029 54.8015C49.7139 54.8015 50.2712 55.3588 50.2712 56.0437C50.2711 56.7288 49.7139 57.286 49.029 57.286Z" fill="#C09175"/>
</g>
<defs>
<clipPath id="clip0_347_456">
<rect width="70" height="70" fill="white"/>
</clipPath>
</defs>
</svg>
