<svg width="70" height="70" viewBox="0 0 70 70" fill="none" xmlns="http://www.w3.org/2000/svg">
<path d="M65.0997 39.2298L63.287 31.9789C63.7826 31.8737 64.1544 31.434 64.1544 30.9072V29.7381C64.1544 27.1998 62.0893 25.1348 59.5511 25.1348H51.2944V22.7235C51.2944 21.4744 50.2783 20.4583 49.0293 20.4583H33.6766L43.0062 16.7265C43.5683 16.5017 43.8416 15.8638 43.6168 15.3017C43.3921 14.7398 42.7546 14.4662 42.1921 14.6911L34.5531 17.7467C36.8808 16.2531 39.1839 14.6094 40.0606 13.4598C41.7676 11.2219 41.3353 8.01256 39.0973 6.30563C36.8594 4.59856 33.65 5.031 31.9431 7.26895C30.696 8.90438 29.0504 13.4996 27.9854 16.7378C26.9203 13.4999 25.2748 8.90438 24.0276 7.26895C22.3208 5.031 19.1114 4.59883 16.8734 6.30563C14.6355 8.01243 14.2033 11.2218 15.9101 13.4598C16.7869 14.6095 19.0898 16.2531 21.4177 17.7467L13.7787 14.6911C13.2163 14.466 12.5787 14.7397 12.3539 15.3017C12.129 15.8638 12.4024 16.5017 12.9645 16.7265L22.2942 20.4583H6.94148C5.69242 20.4583 4.67633 21.4744 4.67633 22.7235V42.5983C4.67633 43.2036 5.16701 43.6944 5.7724 43.6944C6.37766 43.6944 6.86848 43.2037 6.86848 42.5983V22.7235C6.86848 22.6832 6.90115 22.6505 6.94148 22.6505H49.0291C49.0695 22.6505 49.1021 22.6832 49.1021 22.7235V42.5986C49.1021 43.2038 49.5928 43.6946 50.1982 43.6946C50.8035 43.6946 51.2943 43.204 51.2943 42.5986V41.3561H64.2232C64.2245 41.3561 64.2254 41.3563 64.2266 41.3563C64.2279 41.3563 64.229 41.3562 64.2302 41.3562C65.8211 41.3574 67.1718 42.4017 67.6356 43.8405H64.2275C63.6222 43.8405 63.1314 44.3312 63.1314 44.9366V47.2748C63.1314 49.1685 64.6719 50.709 66.5656 50.709H67.8079V55.5315H64.942C64.0005 52.8132 61.4164 50.855 58.3819 50.855C55.3474 50.855 52.7632 52.8131 51.8219 55.5315H51.2941V47.2746C51.2941 46.6694 50.8035 46.1786 50.1981 46.1786C49.5928 46.1786 49.102 46.6692 49.102 47.2746V55.5313H26.3617C25.4203 52.8131 22.8361 50.8549 19.8017 50.8549C16.7672 50.8549 14.1829 52.813 13.2416 55.5313H6.94148C6.90115 55.5313 6.86848 55.4987 6.86848 55.4583V53.047H11.6179C12.2232 53.047 12.714 52.5564 12.714 51.951C12.714 51.3456 12.2233 50.8549 11.6179 50.8549H1.09607C0.49082 50.8549 0 51.3456 0 51.951C0 52.5564 0.490684 53.047 1.09607 53.047H4.67647V55.4583C4.67647 56.7074 5.69256 57.7235 6.94162 57.7235H12.8621C12.8618 57.7478 12.8602 57.772 12.8602 57.7965C12.8602 61.6239 15.9742 64.738 19.8017 64.738C23.6291 64.738 26.7431 61.6239 26.7431 57.7965C26.7431 57.7719 26.7415 57.7478 26.7412 57.7235H51.4422C51.4419 57.7478 51.4403 57.772 51.4403 57.7965C51.4403 61.6239 54.5543 64.738 58.3818 64.738C62.2092 64.738 65.3233 61.6239 65.3233 57.7965C65.3233 57.7719 65.3216 57.7478 65.3214 57.7235H68.9038C69.509 57.7235 69.9999 57.2328 69.9999 56.6274V44.9365C70 42.0498 67.8703 39.6515 65.0997 39.2298ZM23.6387 16.5511C19.3152 13.8644 18.0328 12.6283 17.6531 12.1304C16.6793 10.8536 16.9259 9.02251 18.2029 8.04866C18.7292 7.64725 19.3497 7.45325 19.9656 7.45325C20.8436 7.45325 21.7123 7.84782 22.2847 8.5984C23.345 9.98856 25.0054 14.6675 26.1017 18.0391C25.3619 17.6035 24.5115 17.0937 23.6387 16.5511ZM29.8694 18.039C30.9656 14.6675 32.626 9.9887 33.6861 8.59827C34.66 7.32145 36.4911 7.07495 37.7679 8.04866C39.0448 9.02251 39.2913 10.8536 38.3176 12.1304C37.9379 12.6282 36.6555 13.8644 32.3323 16.5509C31.4597 17.0934 30.6093 17.6034 29.8694 18.039ZM51.2944 27.3267H59.5511C60.8807 27.3267 61.9624 28.4084 61.9624 29.738V29.811H51.2944V27.3267ZM51.2944 39.1639V32.0031H61.0336L62.8238 39.1639H51.2944ZM19.8017 62.546C17.1828 62.546 15.0522 60.4154 15.0522 57.7965C15.0522 55.1777 17.1828 53.047 19.8017 53.047C22.4205 53.047 24.5511 55.1777 24.5511 57.7965C24.5511 60.4154 22.4205 62.546 19.8017 62.546ZM58.3821 62.546C55.7632 62.546 53.6326 60.4154 53.6326 57.7965C53.6326 55.1777 55.7632 53.047 58.3821 53.047C61.0009 53.047 63.1315 55.1777 63.1315 57.7965C63.1315 60.4154 61.0009 62.546 58.3821 62.546ZM67.808 48.5167H66.5658C65.8808 48.5167 65.3235 47.9595 65.3235 47.2745V46.0323H67.8079V48.5167H67.808Z" fill="#C09175"/>
<path d="M19.8013 55.5313C18.5522 55.5313 17.5361 56.5474 17.5361 57.7965C17.5361 59.0455 18.5522 60.0616 19.8013 60.0616C21.0504 60.0616 22.0664 59.0455 22.0664 57.7965C22.0664 56.5474 21.0504 55.5313 19.8013 55.5313Z" fill="#C09175"/>
<path d="M58.3823 55.5313C57.1333 55.5313 56.1172 56.5474 56.1172 57.7965C56.1172 59.0455 57.1333 60.0616 58.3823 60.0616C59.6314 60.0616 60.6475 59.0455 60.6475 57.7965C60.6475 56.5474 59.6314 55.5313 58.3823 55.5313Z" fill="#C09175"/>
<path d="M45.5221 50.8549H29.1547C28.5494 50.8549 28.0586 51.3455 28.0586 51.9509C28.0586 52.5563 28.5493 53.047 29.1547 53.047H45.5221C46.1273 53.047 46.6182 52.5563 46.6182 51.9509C46.6182 51.3455 46.1275 50.8549 45.5221 50.8549Z" fill="#C09175"/>
<path d="M17.4632 46.1785H3.43396C2.82871 46.1785 2.33789 46.6692 2.33789 47.2746C2.33789 47.88 2.82857 48.3707 3.43396 48.3707H17.4632C18.0685 48.3707 18.5593 47.88 18.5593 47.2746C18.5593 46.6692 18.0685 46.1785 17.4632 46.1785Z" fill="#C09175"/>
<path d="M17.463 29.811H12.7865C12.1812 29.811 11.6904 30.3017 11.6904 30.907V40.2598C11.6904 40.8651 12.1811 41.3559 12.7865 41.3559C13.3919 41.3559 13.8826 40.8652 13.8826 40.2598V36.6794H16.2939C16.8991 36.6794 17.39 36.1888 17.39 35.5834C17.39 34.978 16.8993 34.4873 16.2939 34.4873H13.8826V32.0031H17.463C18.0682 32.0031 18.559 31.5124 18.559 30.907C18.5589 30.3018 18.0682 29.811 17.463 29.811Z" fill="#C09175"/>
<path d="M26.0893 37.1934C27.1862 36.4749 27.9127 35.236 27.9127 33.8298C27.9127 31.6137 26.1099 29.811 23.8938 29.811H20.9711C20.3658 29.811 19.875 30.3017 19.875 30.907V40.2598C19.875 40.8651 20.3657 41.3559 20.9711 41.3559C21.5765 41.3559 22.0671 40.8652 22.0671 40.2598V37.8485H23.8918L25.9046 40.8677C26.1158 41.1845 26.4632 41.3559 26.8174 41.3559C27.0265 41.3559 27.2376 41.2963 27.4243 41.1716C27.9281 40.836 28.0642 40.1554 27.7283 39.6519L26.0893 37.1934ZM23.8938 35.6565H22.0671V32.0031H23.8938C24.9012 32.0031 25.7205 32.8225 25.7205 33.8298C25.7205 34.8372 24.9012 35.6565 23.8938 35.6565Z" fill="#C09175"/>
<path d="M35.0001 39.1639H31.4197V36.6759C31.4439 36.6775 31.4681 36.6796 31.4927 36.6796H33.8309C34.4361 36.6796 34.9269 36.1889 34.9269 35.5835C34.9269 34.9781 34.4362 34.4874 33.8309 34.4874H31.4927C31.4679 34.4874 31.4439 34.4895 31.4197 34.4911V32.0031H35.0001C35.6053 32.0031 36.0961 31.5124 36.0961 30.907C36.0961 30.3018 35.6055 29.811 35.0001 29.811H30.3236C29.7184 29.811 29.2275 30.3017 29.2275 30.907V40.2598C29.2275 40.8651 29.7182 41.3559 30.3236 41.3559H35.0001C35.6053 41.3559 36.0961 40.8652 36.0961 40.2598C36.0961 39.6544 35.6053 39.1639 35.0001 39.1639Z" fill="#C09175"/>
<path d="M43.1837 39.1639H39.6033V36.6796H40.8455C41.4508 36.6796 41.9416 36.1889 41.9416 35.5835C41.9416 34.9781 41.4509 34.4874 40.8455 34.4874H39.6033V32.0031H43.1837C43.7889 32.0031 44.2797 31.5124 44.2797 30.907C44.2797 30.3018 43.7891 29.811 43.1837 29.811H38.5072C37.902 29.811 37.4111 30.3017 37.4111 30.907V40.2598C37.4111 40.8651 37.9018 41.3559 38.5072 41.3559H43.1837C43.7889 41.3559 44.2797 40.8652 44.2797 40.2598C44.2797 39.6544 43.7889 39.1639 43.1837 39.1639Z" fill="#C09175"/>
</svg>
