<svg width="70" height="70" viewBox="0 0 70 70" fill="none" xmlns="http://www.w3.org/2000/svg">
<g clip-path="url(#clip0_347_439)">
<path d="M70 4.76839C70.0053 3.49021 69.5121 2.29023 68.6111 1.38925C67.7101 0.488272 66.5078 -0.00418858 65.2321 0.000459856C63.9576 0.00579189 62.7577 0.506593 61.8536 1.41058C61.4708 1.79339 60.7745 2.62026 60.3936 3.07923C59.9936 3.56116 60.0597 4.2762 60.5417 4.67611C61.0235 5.07614 61.7385 5.00997 62.1385 4.52804C62.7352 3.80944 63.2283 3.24357 63.4573 3.01442C63.9356 2.53632 64.5691 2.27136 65.2415 2.26849C65.2452 2.26849 65.2486 2.26849 65.2523 2.26849C65.917 2.26849 66.5401 2.52552 67.0074 2.99296C67.4773 3.46286 67.7347 4.08999 67.7318 4.75882C67.729 5.43107 67.464 6.06462 66.9859 6.543C66.5578 6.97107 65.0865 8.13823 62.9784 9.61083C61.7314 7.47884 59.4187 6.04261 56.7755 6.04261H40.1691C37.9274 6.04261 35.82 6.91556 34.2348 8.50054L1.04084 41.6949C0.369687 42.366 0 43.2584 0 44.2075C0 45.1566 0.369687 46.0491 1.04084 46.7201L23.2805 68.9598C23.9734 69.6525 24.8831 69.9988 25.7931 69.9988C26.7031 69.9988 27.6131 69.6524 28.3057 68.9598L61.4999 35.7657C63.0849 34.1806 63.9579 32.0732 63.9579 29.8314V13.2251C63.9579 12.735 63.9082 12.2565 63.8142 11.7937C66.2137 10.1425 67.9752 8.76126 68.5896 8.14685C69.4939 7.24286 69.9947 6.04302 70 4.76839ZM61.6898 29.8314C61.6898 31.4672 61.0527 33.0052 59.8962 34.1617L26.702 67.356C26.2011 67.8571 25.3854 67.8571 24.8843 67.356L2.64469 45.1164C2.40201 44.8737 2.26816 44.5509 2.26816 44.2075C2.26816 43.8641 2.40188 43.5414 2.64469 43.2987L35.8388 10.1047C36.9955 8.94802 38.5334 8.31105 40.1691 8.31105H56.7753C58.6402 8.31105 60.2658 9.35517 61.0981 10.8894C59.7585 11.7765 58.2586 12.7197 56.6673 13.6472C56.6177 13.5928 56.567 13.5389 56.5143 13.4863C54.6572 11.6291 51.6354 11.6291 49.7782 13.4863C47.921 15.3434 47.921 18.3652 49.7782 20.2224C50.7068 21.151 51.9266 21.6151 53.1463 21.6151C54.3659 21.6151 55.5857 21.151 56.5143 20.2224C57.754 18.9828 58.1648 17.2247 57.7497 15.64C59.1337 14.8343 60.4628 14.0109 61.6893 13.2142C61.6894 13.218 61.6897 13.2216 61.6897 13.2253V29.8314H61.6898ZM52.1335 17.3639C52.3327 17.76 52.7324 17.9885 53.1475 17.9885C53.3188 17.9885 53.4929 17.9496 53.6564 17.8673C54.3211 17.5329 54.9835 17.1851 55.6393 16.8288C55.6459 17.4761 55.4039 18.1255 54.9109 18.6185C53.938 19.5913 52.3554 19.5913 51.3825 18.6185C50.4097 17.6457 50.4097 16.063 51.3825 15.0901C51.8689 14.6037 52.5078 14.3606 53.1467 14.3606C53.6525 14.3606 54.1569 14.5156 54.5871 14.8204C53.9453 15.1693 53.2938 15.5109 52.6371 15.8414C52.0773 16.1226 51.8518 16.8044 52.1335 17.3639Z" fill="#C09175"/>
<path d="M33.7913 23.1003C33.165 23.1003 32.6572 23.6079 32.6572 24.2344V48.1846C32.6572 48.8109 33.165 49.3187 33.7913 49.3187C34.4176 49.3187 34.9254 48.8109 34.9254 48.1846V24.2344C34.9254 23.6079 34.4176 23.1003 33.7913 23.1003Z" fill="#C09175"/>
<path d="M28.6063 32.8416C26.7492 30.9841 23.7273 30.9843 21.8704 32.8415C20.0132 34.6987 20.0132 37.7204 21.8704 39.5776C22.7992 40.5063 24.0187 40.9705 25.2385 40.9704C26.458 40.9704 27.678 40.5059 28.6064 39.5776C29.5062 38.6779 30.0016 37.4818 30.0016 36.2095C30.0016 34.9372 29.506 33.7411 28.6063 32.8416ZM27.0026 37.9736C26.0297 38.9465 24.447 38.9464 23.4743 37.9736C22.5015 37.0007 22.5015 35.4181 23.4743 34.4452C23.9607 33.9587 24.5996 33.7157 25.2385 33.7157C25.8774 33.7157 26.5163 33.9587 27.0027 34.4452C27.474 34.9165 27.7335 35.5429 27.7335 36.2094C27.7333 36.8759 27.4738 37.5024 27.0026 37.9736Z" fill="#C09175"/>
<path d="M45.7137 32.8415C43.8565 30.9842 40.8346 30.9843 38.9779 32.8415C37.1207 34.6987 37.1207 37.7204 38.9779 39.5776C39.9064 40.5062 41.1261 40.9704 42.3459 40.9704C43.5656 40.9704 44.7854 40.5062 45.7138 39.5776C47.5709 37.7204 47.5709 34.6987 45.7137 32.8415ZM44.1099 37.9736C43.137 38.9465 41.5543 38.9464 40.5816 37.9736C39.6088 37.0007 39.6088 35.4181 40.5816 34.4452C41.068 33.9588 41.7069 33.7157 42.3458 33.7157C42.9847 33.7157 43.6236 33.9588 44.11 34.4452C45.0828 35.4181 45.0827 37.0007 44.1099 37.9736Z" fill="#C09175"/>
</g>
<defs>
<clipPath id="clip0_347_439">
<rect width="70" height="70" fill="white"/>
</clipPath>
</defs>
</svg>
