<svg width="177" height="99" viewBox="0 0 177 99" fill="none" xmlns="http://www.w3.org/2000/svg">
<path d="M66.8392 60.16C71.7992 45.76 75.2392 35.2 77.5592 27.6C82.1992 12.08 82.3592 8.07997 80.9192 6.71997C80.5192 6.39997 79.5592 5.99997 78.1992 6.47997C77.5592 6.71997 76.0392 7.27998 60.7592 26C51.9592 36.8 40.8392 50.8 31.0792 63.12C30.0392 64.4 28.9992 65.68 28.1192 66.88C17.2392 69.36 7.15922 72 3.63922 73.36C2.27922 73.84 0.679222 74.64 0.359222 75.92C-0.0407781 77.36 1.23922 78.24 2.75922 79.28C6.11922 81.68 10.9192 85.2 4.67922 94.8C4.27922 95.52 3.95922 96 3.71922 96.32C3.55922 96.64 2.91922 97.84 3.87922 98.4C4.03922 98.48 4.35922 98.56 4.51922 98.56C5.31922 98.56 5.95922 97.84 6.35922 97.44C6.83922 96.96 7.39922 96.32 8.11922 95.44C9.55922 93.76 11.5592 91.44 14.1992 88.16C18.3592 83.04 23.7192 76.24 29.4792 69.04C33.2392 68.16 37.4792 67.28 41.6392 66.4C50.5192 64.56 58.0392 63.28 63.5592 62.56C63.6392 62.56 63.7992 62.56 63.3192 62.64C60.2792 71.52 56.5192 82.4 52.0392 95.12C51.7992 95.76 52.1992 96.48 52.8392 96.56C53.5592 96.72 54.3592 96.16 54.5992 95.52C59.1592 82.56 62.9992 71.52 66.1192 62.32C72.5992 61.68 73.3992 62.32 73.3992 62.4C73.6392 62.96 74.4392 63.2 75.0792 62.96C75.7992 62.64 76.1992 61.84 76.0392 61.28C75.7192 60.08 74.1192 59.12 66.4392 60.4L66.8392 60.16ZM9.31922 91.36C12.6792 82.96 7.39922 79.28 4.51922 77.2C3.95922 76.72 3.23922 76.24 3.15922 76.16C3.07922 76.24 3.39922 76 4.27922 75.68C7.15922 74.56 15.8792 72.16 25.6392 69.92C19.3192 77.84 12.8392 86 8.91922 91.6L9.31922 91.36ZM64.5192 60H64.4392C58.9192 60.64 51.2392 61.92 42.1992 63.76C38.5192 64.56 34.6792 65.36 31.8792 66C31.8792 65.92 32.5192 65.2 33.0792 64.4C42.7592 52.24 53.7992 38.4 62.5192 27.76C75.3192 12.08 78.2792 9.11997 78.9192 8.79997C78.9992 8.71997 78.9192 8.79997 78.8392 8.71997C78.9192 8.79997 79.3192 9.43997 78.6792 13.04C78.1192 16.08 76.9192 20.8 74.9192 27.28C72.5992 34.96 69.1592 45.6 64.4392 60.64L64.5192 60Z" fill="white"/>
<path d="M88.6955 57.52C87.1755 58 82.7755 59.68 79.9755 63.6C79.4955 65.12 79.6555 64.48 79.8155 63.92C81.3355 60.4 84.3755 53.68 87.2555 47.2C91.4955 37.84 96.2155 27.28 99.8955 18.64C105.895 4.31997 105.975 2.23997 105.415 1.35997C105.255 1.03997 104.775 0.719971 104.215 0.719971C102.935 0.719971 101.735 2.15997 101.015 3.19997C100.135 4.47997 99.1755 6.23997 97.9755 8.47997C95.7355 13.12 92.9355 19.52 89.8955 27.2C85.5755 38.16 81.2555 50.72 77.3355 63.44C76.2955 65.92 76.1355 66.72 76.2155 67.04C75.5755 69.04 75.0155 71.2 74.3755 73.28C74.3755 73.36 74.2955 73.44 74.2955 73.52C74.2155 73.68 74.1355 73.84 74.1355 74C73.4155 76.64 72.6155 79.36 71.8955 82C71.8955 82.08 71.8155 82.16 71.8155 82.24C71.8155 82.4 71.7355 82.56 71.7355 82.72C71.5755 83.04 71.4955 83.36 71.2555 83.68C70.6155 84.56 70.2155 86.32 70.6955 87.04C70.9355 87.36 71.3355 87.52 71.7355 87.52C71.8155 87.52 72.0555 87.52 72.2155 87.44C72.4555 87.36 72.6955 87.2 72.8555 87.04C73.0955 86.88 73.3355 86.56 73.4155 86.24C73.4955 86.08 73.4955 85.92 73.5755 85.76C73.6555 85.52 73.7355 85.2 73.8155 84.88C73.9755 84.24 74.1355 83.68 74.2955 83.12C74.3755 82.8 74.4555 82.48 74.4555 82.32C75.3355 79.36 76.1355 76.48 76.9355 73.76C77.0955 73.28 77.3355 72.8 77.0955 73.28C77.0955 73.36 77.8955 73.84 78.6155 74C78.9355 74.08 79.1755 74.08 79.4955 74.08C82.2955 74.08 85.8955 71.52 87.3355 70.4C90.6155 67.84 93.3355 64.72 94.3755 62.24C95.0155 60.72 94.9355 59.36 94.1355 58.4C93.7355 56.72 89.1755 57.2 88.6955 57.52ZM92.2155 27.92C94.8555 21.52 97.5755 15.04 99.8955 10.4C101.735 6.63997 102.855 4.79997 102.375 5.43997C102.375 5.51997 101.015 9.43997 97.1755 18.64C93.4955 27.2 88.9355 37.44 84.7755 46.56C84.6955 46.8 84.6155 47.04 87.8155 39.84C87.8955 39.52 90.2955 33.28 91.4955 29.2L92.2155 27.92ZM91.8955 61.6C91.0155 63.68 88.6955 66.32 85.8155 68.56C83.0955 70.64 80.6955 71.76 79.6555 71.52C78.8555 71.36 79.1755 69.76 79.6555 68.4C82.7755 63.28 86.3755 60.72 89.0155 60C90.4555 59.6 91.4955 59.68 91.9755 60.24C92.2155 60.48 91.8955 61.6 91.8955 61.6Z" fill="white"/>
<path d="M121.908 64.72C122.628 64.48 123.028 63.68 122.788 63.04C122.628 62.48 121.828 62.24 121.108 62.48C119.348 63.28 114.148 62.56 110.948 61.84C110.548 61.68 110.068 61.52 109.508 61.44C109.028 61.28 108.628 61.2 108.388 61.2C107.988 61.12 107.028 60.96 106.468 61.76C106.308 61.92 106.228 62.08 106.308 61.76C105.588 61.44 103.748 61.84 102.068 63.04C99.188 64.88 96.148 68.8 96.228 71.76C96.308 73.36 97.348 74.56 99.108 75.04C99.588 75.12 100.148 75.2 100.628 75.2C103.748 75.2 107.268 73.28 109.588 71.12C112.068 68.96 113.348 66.4 113.108 64.56C113.108 64.48 113.108 64.48 113.188 64.88C112.628 64.8 112.788 64.88 112.948 64.88C117.188 65.52 120.308 65.52 121.748 64.8L121.908 64.72ZM107.908 69.44C105.748 71.44 102.468 73.12 100.148 72.56C99.348 72.4 98.948 72 98.948 71.28C98.868 69.52 100.948 66.56 103.268 65.04C103.748 64.72 104.548 64.24 105.108 64.24C105.268 64.24 105.348 64.32 105.508 64.32C106.068 64.72 107.028 64.4 107.428 63.84C107.508 63.68 107.588 63.52 107.508 63.76C107.348 63.76 107.908 63.84 108.788 64.08C109.028 64.16 109.348 64.16 109.588 64.24C110.068 64.48 110.308 64.8 110.388 65.28C110.548 66.32 109.588 67.92 108.548 69.04L107.908 69.44Z" fill="white"/>
<path d="M140.14 65.44C139.58 65.2 138.62 65.52 138.22 66.08C133.5 73.44 131.5 74.48 131.18 74.4C130.7 74.24 130.38 71.36 132.62 65.44C132.86 64.8 133.1 64.32 133.18 64C133.34 63.84 133.58 63.68 133.74 63.52C134.06 63.28 135.1 62.56 134.86 61.44C134.46 59.92 133.42 59.76 132.94 59.84C131.5 60 130.62 61.68 129.9 63.84C128.14 66.72 124.94 71.68 122.14 72.64C121.42 72.88 121.34 72.72 121.1 72.48C120.14 70.8 121.82 65.12 122.62 63.52C122.46 63.6 122.46 63.6 122.46 63.6C123.1 63.36 123.66 62.56 123.58 62C123.42 61.12 122.62 60.96 122.38 60.96C121.98 60.88 121.26 61.12 120.7 61.92C119.66 63.52 116.86 71.36 118.86 74.16C119.26 74.72 120.46 75.76 122.7 74.96C125.26 74.08 127.74 71.28 128.46 70.4C127.9 72.32 127.74 76 129.9 76.8C130.14 76.88 130.46 76.88 130.7 76.88C133.1 76.88 136.46 73.52 140.46 67.12C140.86 66.56 140.14 65.44 140.14 65.44Z" fill="white"/>
<path d="M123.681 39.04C122.961 39.2 122.321 39.84 122.321 40.48C122.321 41.04 122.881 41.52 123.521 41.52H123.681C132.801 40 140.801 38.88 147.201 38.16C144.161 46.24 140.801 56.32 138.001 66.56C136.161 73.2 135.041 79.04 134.721 83.36C134.401 88.08 135.121 90.72 137.041 91.12C137.201 91.12 137.361 91.12 137.521 91.12C139.281 91.12 141.361 89.12 143.761 85.2C146.321 81.12 149.201 74.96 152.481 66.96C152.721 66.4 152.401 65.6 151.761 65.44C151.121 65.28 150.241 65.84 150.001 66.4C146.721 74.32 143.921 80.32 141.521 84.24C138.721 88.72 138.001 88.64 138.001 88.64C137.761 88.56 137.121 87.6 137.441 83.12C137.681 78.96 138.801 73.28 140.561 66.8C143.441 56.4 146.881 46.08 150.001 37.92C155.121 37.36 159.761 37.04 163.761 36.96C164.481 36.96 165.121 36.96 165.681 36.96C168.801 37.04 170.561 37.76 171.841 38.32C172.641 38.64 173.361 38.88 174.161 38.88C174.481 38.88 174.801 38.8 175.121 38.72C175.201 38.72 175.281 38.72 175.281 38.72C176.081 38.4 176.641 37.6 176.561 36.88C176.481 36 175.441 35.36 173.601 34.96C171.841 34.64 169.281 34.4 166.161 34.4C165.201 34.4 164.081 34.4 162.961 34.48C159.361 34.56 155.201 34.88 150.961 35.28C151.201 34.88 151.521 34 151.841 33.2C151.841 33.2 151.921 33.12 151.921 33.04C155.521 26.72 157.521 22.88 158.561 20.8C159.201 19.44 159.681 18.4 160.001 17.68C160.241 16.88 160.801 15.6 159.681 15.12C158.561 14.64 157.681 15.84 157.361 16.32C156.961 16.8 156.481 17.52 156.001 18.4C154.001 21.6 151.121 27.92 148.161 35.6C141.281 36.32 132.961 37.52 124.081 38.96L123.681 39.04Z" fill="white"/>
</svg>
