<svg width="710" height="219" viewBox="0 0 710 219" fill="none" xmlns="http://www.w3.org/2000/svg">
<path d="M104.645 174.414C103.448 173.902 101.397 174.585 100.713 175.952C100.542 176.293 100.371 176.806 100.371 176.464C94.9008 176.293 80.1988 174.756 53.872 170.827C43.4438 169.119 33.5285 167.581 26.1776 166.385C29.5966 156.136 33.8704 142.811 38.3152 128.974C41.9053 117.7 45.8372 105.571 49.7691 93.6131C62.9325 81.1427 71.8221 68.5016 77.6345 58.7644C88.9174 39.2902 93.1912 21.8658 92.1655 13.1537C91.6526 7.34555 88.7464 5.80811 86.695 5.63728C82.7631 5.46646 78.3183 9.5663 73.8735 16.9119C65.6678 30.578 55.0686 59.9602 44.8115 91.3923C39.6829 96.3463 33.6995 101.3 26.8614 106.083C19.3394 111.208 16.7751 112.404 15.5785 112.917C13.8689 113.6 13.0142 114.454 12.5013 116.162L12.3303 116.333C12.1594 117.187 11.6465 118.895 13.1851 119.92C13.527 120.091 14.0399 120.262 14.5527 120.262C15.7494 120.262 16.9461 119.408 17.6299 118.725C18.3137 118.212 19.5104 117.358 21.049 116.162C24.1261 114.112 27.0323 112.233 29.9385 110.183C34.8962 106.596 39.5119 102.838 41.5633 101.129C39.17 108.646 35.9219 118.554 32.8447 128.291C28.3999 142.128 24.1261 155.282 20.7071 165.36C17.8008 164.848 14.5527 164.165 11.9884 163.823C10.4499 162.627 8.22746 161.773 5.49221 161.602C3.78268 161.602 0.876474 161.431 0.192661 163.994C0.0217078 164.506 -0.662105 166.385 2.2441 167.239C2.75696 167.41 3.61173 167.581 4.63745 167.923C5.66317 168.094 7.20174 168.435 8.74032 168.777C8.74032 168.777 8.91128 168.948 9.08223 169.289C11.4756 172.706 9.59509 180.051 8.05651 185.86C6.68888 190.984 5.83412 194.743 7.7146 196.622C8.22746 197.305 9.25318 197.647 10.2789 197.647C10.6208 197.647 10.9627 197.647 11.3046 197.476C13.527 197.134 15.2365 194.913 17.288 189.959C18.8266 186.543 20.7071 181.76 22.9294 175.439C23.4423 173.902 23.9552 172.364 24.2971 171.681C34.3833 173.389 47.7177 175.439 60.3682 177.318C72.6768 179.027 83.2759 180.393 90.7979 181.247C95.2427 181.589 98.6617 181.76 101.055 181.931C104.132 181.931 107.038 181.76 108.235 179.368C109.603 176.464 104.645 174.414 104.645 174.414ZM78.6602 18.9618C82.5921 12.4704 84.8145 11.1037 85.3274 11.1037C85.6693 11.1037 86.1821 11.9579 86.524 14.5203C87.3788 22.3783 83.4469 38.436 72.6768 56.7145C67.8901 64.9142 60.8811 74.8221 53.5301 82.6802C61.9068 57.3978 71.4802 30.9197 77.8054 19.4743L78.6602 18.9618ZM18.1428 172.535C14.3818 183.81 12.1594 188.764 13.3561 186.372C12.8432 189.959 13.3561 187.91 13.698 186.372C15.0656 180.906 16.9461 174.073 15.7494 170.144C15.9204 170.144 17.8008 170.485 18.8266 170.656C18.8266 170.827 18.4847 171.681 18.8266 173.389L18.1428 172.535Z" fill="white" fill-opacity="0.4"/>
<path d="M85.2139 133.416C83.8462 135.978 82.8205 138.711 82.1367 141.445C82.1367 141.615 81.9657 141.786 81.9657 141.957C80.2562 149.303 80.94 156.819 85.7267 159.552C86.7524 160.065 88.1201 160.577 89.8296 160.577C94.6163 160.577 102.138 156.819 113.25 144.349C114.276 143.153 114.276 141.445 113.421 140.59C112.224 139.736 110.173 140.078 109.147 141.103C99.7449 151.865 92.3939 156.648 89.3167 154.769C86.7524 153.402 86.2396 148.278 87.6072 142.299C88.12 141.615 89.1458 139.907 90.0005 139.053C91.7101 137.516 92.3939 135.295 91.881 133.416C91.3682 132.049 90.1715 131.024 88.6329 131.195C87.6072 131.195 85.2139 133.416 85.2139 133.416ZM91.881 127.949C92.5648 127.949 93.4196 127.778 94.1034 127.266C95.813 126.241 98.3773 123.166 97.6934 120.262C97.3515 118.383 95.642 118.212 95.1291 118.212C92.9067 118.212 91.7101 120.091 90.8553 121.8C89.4877 123.679 88.6329 125.729 89.8296 127.095C90.1715 127.608 91.0263 127.949 91.881 127.949Z" fill="white" fill-opacity="0.4"/>
<path d="M189.017 140.761C188.162 139.907 186.111 139.907 184.914 140.761C179.615 145.374 175.512 147.424 172.435 147.424C168.845 147.424 166.451 144.349 163.887 141.274C161.494 138.199 158.758 134.782 154.314 135.295C150.553 135.807 146.45 139.053 142.005 145.203C141.321 145.886 141.15 146.228 141.663 145.715C141.663 145.715 140.979 143.324 140.466 141.615C139.27 136.832 137.56 131.024 132.432 130.512C128.329 130.341 123.542 133.587 118.072 140.42C114.14 145.032 111.746 147.936 113.114 146.399C113.114 146.399 115.849 140.761 117.559 137.174C118.072 135.807 117.559 134.27 116.191 133.757C114.823 133.416 112.943 134.27 112.259 135.636C109.524 141.445 107.302 146.057 106.105 149.303C104.395 153.232 103.37 156.477 105.763 157.673C106.105 157.844 106.618 158.015 107.131 158.015C109.182 158.015 111.233 155.965 113.114 153.915C115.336 151.694 118.243 148.278 122.345 143.324C127.816 136.491 130.038 135.807 131.064 135.978C132.774 135.978 133.97 140.42 134.996 143.836C136.022 147.936 137.047 151.523 140.466 151.694C143.202 151.865 145.253 149.303 146.45 147.765C150.724 141.957 152.946 140.761 154.143 140.761C155.51 140.42 157.22 142.47 159.1 145.032C161.836 148.449 165.255 152.719 171.409 152.89C171.409 152.89 171.409 152.89 171.58 152.89C176.367 152.89 182.008 149.986 188.333 144.52C189.53 143.495 189.017 140.761 189.017 140.761Z" fill="white" fill-opacity="0.4"/>
<path d="M186.717 133.416C185.35 135.978 184.324 138.711 183.64 141.445C183.64 141.615 183.469 141.786 183.469 141.957C181.76 149.303 182.444 156.819 187.23 159.552C188.256 160.065 189.624 160.577 191.333 160.577C196.12 160.577 203.642 156.819 214.754 144.349C215.779 143.153 215.779 141.445 214.925 140.59C213.728 139.736 211.676 140.078 210.651 141.103C201.248 151.865 193.897 156.648 190.82 154.769C188.256 153.402 187.743 148.278 189.111 142.299C189.624 141.615 190.649 139.907 191.504 139.053C193.214 137.516 193.897 135.295 193.385 133.416C192.872 132.049 191.675 131.024 190.136 131.195C189.111 131.195 186.717 133.416 186.717 133.416ZM193.385 127.949C194.068 127.949 194.923 127.778 195.607 127.266C197.316 126.241 199.881 123.166 199.197 120.262C198.855 118.383 197.145 118.212 196.633 118.212C194.41 118.212 193.214 120.091 192.359 121.8C190.991 123.679 190.136 125.729 191.333 127.095C191.675 127.608 192.53 127.949 193.385 127.949Z" fill="white" fill-opacity="0.4"/>
<path d="M180.085 83.876C178.546 84.2176 177.179 85.5842 177.179 86.9508C177.179 88.1466 178.375 89.1716 179.743 89.1716H180.085C199.574 85.9259 216.669 83.5343 230.345 81.9969C223.849 99.2504 216.669 120.775 210.686 142.64C206.754 156.819 204.36 169.289 203.676 178.514C202.993 188.593 204.531 194.23 208.634 195.084C208.976 195.084 209.318 195.084 209.66 195.084C213.421 195.084 217.866 190.814 222.994 182.443C228.465 173.731 234.619 160.577 241.628 143.495C242.141 142.299 241.457 140.59 240.089 140.249C238.722 139.907 236.841 141.103 236.328 142.299C229.319 159.211 223.336 172.023 218.207 180.393C212.224 189.959 210.686 189.789 210.686 189.789C210.173 189.618 208.805 187.568 209.489 178.002C210.002 169.119 212.395 156.99 216.156 143.153C222.31 120.945 229.661 98.9087 236.328 81.4844C247.27 80.2886 257.185 79.6053 265.732 79.4345C267.271 79.4345 268.639 79.4345 269.835 79.4345C276.503 79.6053 280.263 81.1427 282.999 82.3385C284.708 83.0218 286.247 83.5343 287.956 83.5343C288.64 83.5343 289.324 83.3635 290.008 83.1927C290.179 83.1927 290.35 83.1927 290.35 83.1927C292.059 82.5093 293.256 80.8011 293.085 79.2636C292.914 77.3845 290.692 76.0179 286.76 75.1638C282.999 74.4805 277.528 73.968 270.861 73.968C268.81 73.968 266.416 73.968 264.023 74.1388C256.33 74.3097 247.44 74.993 238.38 75.8471C238.893 74.993 239.577 73.1139 240.26 71.4056C240.26 71.4056 240.431 71.2348 240.431 71.0639C248.124 57.5686 252.398 49.3689 254.62 44.9275C255.988 42.0234 257.014 39.8026 257.698 38.2652C258.211 36.5569 259.407 33.8237 257.014 32.7987C254.62 31.7738 252.74 34.3362 252.056 35.3612C251.201 36.3861 250.176 37.9236 249.15 39.8026C244.876 46.6357 238.722 60.131 232.397 76.5304C217.695 78.0679 199.915 80.6303 180.94 83.7051L180.085 83.876Z" fill="white" fill-opacity="0.4"/>
<path d="M276.056 144.861C277.253 144.007 277.766 142.128 277.082 141.103C276.569 139.907 274.518 139.736 273.15 140.59C253.149 154.257 243.917 155.111 241.353 151.694C240.327 150.328 240.327 147.936 241.182 145.715C249.388 145.374 254.687 140.761 256.397 136.661C257.764 133.416 257.252 130.341 254.858 128.974C253.662 128.291 249.73 126.924 243.746 132.391C236.053 139.566 232.634 150.157 236.566 155.452C237.763 156.99 240.156 158.698 244.601 158.698C250.584 158.698 260.329 155.452 275.373 145.032L276.056 144.861ZM247.336 136.149C249.559 134.099 250.755 133.587 251.268 133.587C251.268 133.587 251.439 133.587 251.268 133.587C251.439 133.757 251.61 134.27 251.097 135.295C250.242 137.516 247.507 139.736 243.746 140.249C244.259 139.395 245.798 137.516 246.482 137.174L247.336 136.149Z" fill="white" fill-opacity="0.4"/>
<path d="M344.256 60.9852C351.265 46.1232 356.565 33.9945 360.155 24.7699C366.309 8.37051 365.967 3.92902 364.77 1.87909C364.258 0.683309 362.89 0 361.351 0C356.394 0 349.043 5.97893 333.657 47.8315C325.793 68.8432 317.416 94.4672 309.724 118.725C306.646 124.362 303.227 129.145 301.176 131.707C300.834 130.683 298.783 128.803 295.705 128.291C291.603 127.266 286.474 128.803 282.2 131.878C278.439 134.441 273.31 139.566 269.72 148.79C268.182 152.378 268.182 155.282 269.72 156.99C270.404 157.673 271.772 158.527 273.823 158.527C274.678 158.527 275.875 158.356 277.242 158.015C284.935 155.623 296.902 146.228 304.253 136.32C304.937 133.928 304.424 135.807 303.74 137.686C299.124 152.378 295.022 165.873 291.432 176.635C291.432 176.635 291.432 176.806 291.261 176.806C291.261 176.806 291.261 176.977 291.09 177.489C289.722 181.589 288.525 185.347 287.329 188.764C286.816 189.959 286.303 191.668 287.5 192.693C287.842 193.034 288.525 193.376 289.209 193.376C289.551 193.376 290.064 193.205 290.406 193.034C291.773 192.522 292.628 191.326 293.141 189.618C293.654 188.764 294.167 187.226 294.68 185.347C295.363 182.101 296.389 179.197 296.731 178.172C300.321 167.069 304.595 153.573 309.382 138.37C311.262 132.391 313.143 126.241 315.194 120.091L344.256 60.9852ZM296.218 137.516C296.047 137.857 295.876 138.028 295.534 138.37C287.329 147.253 279.978 151.694 276.388 152.89C274.849 153.232 274.507 153.232 274.336 153.232C274.165 152.89 274.165 152.036 275.02 149.986C280.149 137.345 287.671 133.416 292.286 133.416C292.799 133.416 293.141 133.416 293.654 133.416C295.534 133.928 296.902 135.124 296.731 138.711L296.218 137.516ZM338.957 47.319C344.256 34.3362 348.701 23.7449 352.633 16.3994C357.761 6.32059 359.984 5.46646 359.813 5.46646C359.813 5.46646 360.497 8.37051 355.026 22.5491C351.607 31.7738 346.478 43.9025 339.469 58.5936C332.802 73.1139 325.793 87.1217 325.622 87.2925C328.016 79.947 333.657 63.2059 338.102 49.3689L338.957 47.319Z" fill="white" fill-opacity="0.4"/>
<path d="M477.502 140.932C446.389 169.802 420.746 190.472 401.257 202.259C381.084 214.388 372.195 214.559 367.921 212.679C361.254 209.434 363.305 197.988 365.015 191.326C369.46 175.268 381.084 154.427 395.445 136.832C411.856 116.846 428.609 104.375 443.141 101.129C444.679 100.788 445.876 99.4212 445.876 98.0546C446.047 96.8588 444.85 95.8338 443.482 95.8338C443.311 95.8338 443.311 95.8338 443.141 95.8338C426.216 95.8338 416.985 91.0507 414.933 81.3136C413.395 73.968 416.472 63.3767 423.994 51.7605C430.832 40.9984 440.576 30.4072 450.662 22.5491C462.971 12.9828 473.057 9.39548 478.528 12.4704C481.434 14.0078 482.973 17.5952 483.486 23.2324C483.827 29.0406 482.973 36.5569 480.75 45.7816C479.895 48.344 479.041 49.8814 478.357 50.9064C477.502 52.1022 476.818 53.6396 476.818 55.3479C477.16 57.9103 478.699 58.7644 479.725 58.7644C479.895 58.7644 480.237 58.7644 480.237 58.7644C482.802 58.2519 483.998 55.6895 485.195 51.9314C485.879 49.3689 486.563 46.2941 487.076 43.0483C487.417 42.0234 487.588 40.8276 487.759 39.461C491.178 22.5491 489.298 11.7871 481.947 7.68721C474.425 3.41653 461.603 7.51637 447.585 18.4493C436.815 26.9906 426.387 38.2652 419.207 49.5398C413.395 58.7644 406.898 71.9181 409.292 83.3635C410.488 88.8299 413.737 93.4423 419.207 96.3463C422.626 98.3962 427.242 99.7629 430.49 100.275C419.207 105.229 404.676 117.358 391.171 133.928C376.127 152.378 363.989 174.073 359.544 190.814C355.783 204.651 357.493 214.046 364.844 217.633C366.724 218.488 369.118 219 371.682 219C390.829 219 428.609 193.376 481.263 144.69C482.289 143.495 482.631 141.786 481.605 140.761C480.75 139.907 477.502 140.932 477.502 140.932Z" fill="white" fill-opacity="0.4"/>
<path d="M548.265 60.9852C555.274 46.1232 560.573 33.9945 564.163 24.7699C570.318 8.37051 569.976 3.92902 568.779 1.87909C568.266 0.683309 566.899 0 565.36 0C560.402 0 553.051 5.97893 537.666 47.8315C529.802 68.8432 521.425 94.4672 513.732 118.725C510.655 124.362 507.236 129.145 505.185 131.707C504.843 130.683 502.791 128.803 499.714 128.291C495.611 127.266 490.483 128.803 486.209 131.878C482.448 134.441 477.319 139.566 473.729 148.79C472.191 152.378 472.191 155.282 473.729 156.99C474.413 157.673 475.781 158.527 477.832 158.527C478.687 158.527 479.883 158.356 481.251 158.015C488.944 155.623 500.911 146.228 508.262 136.32C508.946 133.928 508.433 135.807 507.749 137.686C503.133 152.378 499.03 165.873 495.44 176.635C495.44 176.635 495.44 176.806 495.269 176.806C495.269 176.806 495.269 176.977 495.098 177.489C493.731 181.589 492.534 185.347 491.337 188.764C490.824 189.959 490.312 191.668 491.508 192.693C491.85 193.034 492.534 193.376 493.218 193.376C493.56 193.376 494.073 193.205 494.414 193.034C495.782 192.522 496.637 191.326 497.15 189.618C497.663 188.764 498.175 187.226 498.688 185.347C499.372 182.101 500.398 179.197 500.74 178.172C504.33 167.069 508.604 153.573 513.39 138.37C515.271 132.391 517.151 126.241 519.203 120.091L548.265 60.9852ZM500.227 137.516C500.056 137.857 499.885 138.028 499.543 138.37C491.337 147.253 483.986 151.694 480.396 152.89C478.858 153.232 478.516 153.232 478.345 153.232C478.174 152.89 478.174 152.036 479.029 149.986C484.157 137.345 491.679 133.416 496.295 133.416C496.808 133.416 497.15 133.416 497.663 133.416C499.543 133.928 500.911 135.124 500.74 138.711L500.227 137.516ZM542.965 47.319C548.265 34.3362 552.71 23.7449 556.641 16.3994C561.77 6.32059 563.992 5.46646 563.821 5.46646C563.821 5.46646 564.505 8.37051 559.035 22.5491C555.616 31.7738 550.487 43.9025 543.478 58.5936C536.811 73.1139 529.802 87.1217 529.631 87.2925C532.024 79.947 537.666 63.2059 542.11 49.3689L542.965 47.319Z" fill="white" fill-opacity="0.4"/>
<path d="M533.465 133.416C532.098 135.978 531.072 138.711 530.388 141.445C530.388 141.615 530.217 141.786 530.217 141.957C528.508 149.303 529.191 156.819 533.978 159.552C535.004 160.065 536.371 160.577 538.081 160.577C542.868 160.577 550.39 156.819 561.502 144.349C562.527 143.153 562.527 141.445 561.673 140.59C560.476 139.736 558.424 140.078 557.399 141.103C547.996 151.865 540.645 156.648 537.568 154.769C535.004 153.402 534.491 148.278 535.859 142.299C536.371 141.615 537.397 139.907 538.252 139.053C539.961 137.516 540.645 135.295 540.132 133.416C539.62 132.049 538.423 131.024 536.884 131.195C535.859 131.195 533.465 133.416 533.465 133.416ZM540.132 127.949C540.816 127.949 541.671 127.778 542.355 127.266C544.064 126.241 546.629 123.166 545.945 120.262C545.603 118.383 543.893 118.212 543.381 118.212C541.158 118.212 539.961 120.091 539.107 121.8C537.739 123.679 536.884 125.729 538.081 127.095C538.423 127.608 539.278 127.949 540.132 127.949Z" fill="white" fill-opacity="0.4"/>
<path d="M526.833 83.876C525.294 84.2176 523.927 85.5842 523.927 86.9508C523.927 88.1466 525.123 89.1716 526.491 89.1716H526.833C546.321 85.9259 563.417 83.5343 577.093 81.9969C570.597 99.2504 563.417 120.775 557.433 142.64C553.501 156.819 551.108 169.289 550.424 178.514C549.74 188.593 551.279 194.23 555.382 195.084C555.724 195.084 556.066 195.084 556.408 195.084C560.169 195.084 564.613 190.814 569.742 182.443C575.213 173.731 581.367 160.577 588.376 143.495C588.889 142.299 588.205 140.59 586.837 140.249C585.47 139.907 583.589 141.103 583.076 142.299C576.067 159.211 570.084 172.023 564.955 180.393C558.972 189.959 557.433 189.789 557.433 189.789C556.921 189.618 555.553 187.568 556.237 178.002C556.75 169.119 559.143 156.99 562.904 143.153C569.058 120.945 576.409 98.9087 583.076 81.4844C594.017 80.2886 603.933 79.6053 612.48 79.4345C614.019 79.4345 615.387 79.4345 616.583 79.4345C623.25 79.6053 627.011 81.1427 629.747 82.3385C631.456 83.0218 632.995 83.5343 634.704 83.5343C635.388 83.5343 636.072 83.3635 636.756 83.1927C636.927 83.1927 637.098 83.1927 637.098 83.1927C638.807 82.5093 640.004 80.8011 639.833 79.2636C639.662 77.3845 637.44 76.0179 633.508 75.1638C629.747 74.4805 624.276 73.968 617.609 73.968C615.557 73.968 613.164 73.968 610.771 74.1388C603.078 74.3097 594.188 74.993 585.128 75.8471C585.641 74.993 586.325 73.1139 587.008 71.4056C587.008 71.4056 587.179 71.2348 587.179 71.0639C594.872 57.5686 599.146 49.3689 601.368 44.9275C602.736 42.0234 603.762 39.8026 604.446 38.2652C604.958 36.5569 606.155 33.8237 603.762 32.7987C601.368 31.7738 599.488 34.3362 598.804 35.3612C597.949 36.3861 596.924 37.9236 595.898 39.8026C591.624 46.6357 585.47 60.131 579.144 76.5304C564.442 78.0679 546.663 80.6303 527.688 83.7051L526.833 83.876Z" fill="white" fill-opacity="0.4"/>
<path d="M586.888 133.416C585.52 135.978 584.495 138.711 583.811 141.445C583.811 141.615 583.64 141.786 583.64 141.957C581.93 149.303 582.614 156.819 587.401 159.552C588.427 160.065 589.794 160.577 591.504 160.577C596.291 160.577 603.812 156.819 614.924 144.349C615.95 143.153 615.95 141.445 615.095 140.59C613.899 139.736 611.847 140.078 610.822 141.103C601.419 151.865 594.068 156.648 590.991 154.769C588.427 153.402 587.914 148.278 589.281 142.299C589.794 141.615 590.82 139.907 591.675 139.053C593.384 137.516 594.068 135.295 593.555 133.416C593.042 132.049 591.846 131.024 590.307 131.195C589.281 131.195 586.888 133.416 586.888 133.416ZM593.555 127.949C594.239 127.949 595.094 127.778 595.778 127.266C597.487 126.241 600.052 123.166 599.368 120.262C599.026 118.383 597.316 118.212 596.803 118.212C594.581 118.212 593.384 120.091 592.53 121.8C591.162 123.679 590.307 125.729 591.504 127.095C591.846 127.608 592.701 127.949 593.555 127.949Z" fill="white" fill-opacity="0.4"/>
<path d="M660.775 138.711C662.313 138.199 663.168 136.491 662.655 135.124C662.313 133.928 660.604 133.416 659.065 133.928C655.304 135.636 644.192 134.099 637.354 132.562C636.499 132.22 635.474 131.878 634.277 131.707C633.251 131.366 632.396 131.195 631.884 131.195C631.029 131.024 628.977 130.683 627.781 132.391C627.439 132.732 627.268 133.074 627.439 132.391C625.9 131.707 621.968 132.562 618.378 135.124C612.224 139.053 605.728 147.424 605.899 153.744C606.07 157.161 608.292 159.723 612.053 160.748C613.079 160.919 614.275 161.09 615.301 161.09C621.968 161.09 629.49 156.99 634.448 152.378C639.747 147.765 642.483 142.299 641.97 138.37C641.97 138.199 641.97 138.199 642.141 139.053C640.944 138.882 641.286 139.053 641.628 139.053C650.688 140.42 657.356 140.42 660.433 138.882L660.775 138.711ZM630.858 148.79C626.242 153.061 619.233 156.648 614.275 155.452C612.566 155.111 611.711 154.257 611.711 152.719C611.54 148.961 615.985 142.64 620.943 139.395C621.968 138.711 623.678 137.686 624.875 137.686C625.216 137.686 625.387 137.857 625.729 137.857C626.926 138.711 628.977 138.028 629.832 136.832C630.003 136.491 630.174 136.149 630.003 136.661C629.661 136.661 630.858 136.832 632.738 137.345C633.251 137.516 633.935 137.516 634.448 137.686C635.474 138.199 635.986 138.882 636.157 139.907C636.499 142.128 634.448 145.544 632.225 147.936L630.858 148.79Z" fill="white" fill-opacity="0.4"/>
<path d="M709.993 141.103C709.48 140.078 707.429 139.736 706.061 140.59C692.385 149.644 687.256 150.157 685.034 149.303C682.299 148.107 682.47 143.324 682.47 138.882C682.641 134.612 682.641 130.512 679.222 129.658C676.144 128.803 671.871 131.537 664.862 138.541C663.665 139.736 662.639 140.761 661.784 141.786C660.075 143.324 658.365 145.032 660.246 143.153C660.075 143.665 661.955 139.907 663.323 137.174C664.007 135.978 663.494 134.27 662.126 133.757C660.93 133.416 658.878 134.27 658.194 135.466C655.117 141.615 653.408 145.032 652.382 147.424C651.185 149.986 649.818 153.061 652.04 154.598C654.262 155.965 656.998 153.573 658.536 151.865C660.417 150.328 662.639 148.107 665.545 145.032C666.571 144.178 667.597 142.982 668.622 141.957C675.119 135.466 676.828 134.782 676.657 134.953C676.828 134.953 676.828 137.857 676.657 139.736C676.657 145.032 676.486 151.865 681.957 154.257C682.983 154.769 684.35 154.94 685.718 154.94C691.017 154.94 698.71 151.523 708.797 144.861C710.164 144.007 709.993 141.103 709.993 141.103Z" fill="white" fill-opacity="0.4"/>
</svg>
