<svg width="238" height="238" viewBox="0 0 238 238" fill="none" xmlns="http://www.w3.org/2000/svg">
<circle cx="119" cy="119" r="118" stroke="white" stroke-width="2"/>
<path d="M47.2305 120.32V127H44.9805V109.938H51.2734C53.1406 109.938 54.6016 110.414 55.6562 111.367C56.7188 112.32 57.25 113.582 57.25 115.152C57.25 116.809 56.7305 118.086 55.6914 118.984C54.6602 119.875 53.1797 120.32 51.25 120.32H47.2305ZM47.2305 118.48H51.2734C52.4766 118.48 53.3984 118.199 54.0391 117.637C54.6797 117.066 55 116.246 55 115.176C55 114.16 54.6797 113.348 54.0391 112.738C53.3984 112.129 52.5195 111.812 51.4023 111.789H47.2305V118.48Z" fill="white"/>
<path d="M64.7828 125.16H72.8687V127H62.5211V109.938H64.7828V125.16Z" fill="white"/>
<path d="M87.4914 122.547H80.343L78.7375 127H76.4172L82.9328 109.938H84.9016L91.4289 127H89.1203L87.4914 122.547ZM81.0227 120.695H86.8234L83.9172 112.715L81.0227 120.695Z" fill="white"/>
<path d="M100.227 118.504L104.68 109.938H107.235L101.352 120.637V127H99.1023V120.637L93.2195 109.938H95.7977L100.227 118.504Z" fill="white"/>
<path d="M125.84 124.012L130.715 109.938H133.176L126.848 127H124.855L118.539 109.938H120.988L125.84 124.012Z" fill="white"/>
<path d="M140.287 127H138.037V109.938H140.287V127Z" fill="white"/>
<path d="M146.812 127V109.938H151.628C153.113 109.938 154.425 110.266 155.566 110.922C156.706 111.578 157.585 112.512 158.202 113.723C158.827 114.934 159.144 116.324 159.152 117.895V118.984C159.152 120.594 158.839 122.004 158.214 123.215C157.597 124.426 156.71 125.355 155.554 126.004C154.405 126.652 153.066 126.984 151.534 127H146.812ZM149.062 111.789V125.16H151.429C153.163 125.16 154.511 124.621 155.472 123.543C156.441 122.465 156.925 120.93 156.925 118.938V117.941C156.925 116.004 156.468 114.5 155.554 113.43C154.648 112.352 153.359 111.805 151.687 111.789H149.062Z" fill="white"/>
<path d="M174.606 119.113H167.212V125.16H175.802V127H164.962V109.938H175.684V111.789H167.212V117.273H174.606V119.113Z" fill="white"/>
<path d="M194.127 119.02C194.127 120.691 193.846 122.152 193.284 123.402C192.721 124.645 191.924 125.594 190.893 126.25C189.862 126.906 188.659 127.234 187.284 127.234C185.94 127.234 184.748 126.906 183.709 126.25C182.67 125.586 181.862 124.645 181.284 123.426C180.713 122.199 180.42 120.781 180.405 119.172V117.941C180.405 116.301 180.69 114.852 181.26 113.594C181.83 112.336 182.635 111.375 183.674 110.711C184.721 110.039 185.916 109.703 187.26 109.703C188.627 109.703 189.83 110.035 190.87 110.699C191.916 111.355 192.721 112.312 193.284 113.57C193.846 114.82 194.127 116.277 194.127 117.941V119.02ZM191.889 117.918C191.889 115.895 191.483 114.344 190.67 113.266C189.858 112.18 188.721 111.637 187.26 111.637C185.838 111.637 184.717 112.18 183.897 113.266C183.084 114.344 182.666 115.844 182.643 117.766V119.02C182.643 120.98 183.053 122.523 183.873 123.648C184.702 124.766 185.838 125.324 187.284 125.324C188.737 125.324 189.862 124.797 190.659 123.742C191.455 122.68 191.866 121.16 191.889 119.184V117.918Z" fill="white"/>
</svg>
