<svg width="20" height="20" viewBox="0 0 20 20" fill="none" xmlns="http://www.w3.org/2000/svg">
<path d="M19.9765 7.71618C19.9045 7.49574 19.688 7.35748 19.3277 7.30144L13.2936 6.42409L10.5893 0.954913C10.4209 0.626354 10.2247 0.462158 10.0003 0.462158C9.76799 0.462158 9.57163 0.626354 9.41143 0.954913L6.7068 6.42409L0.672661 7.30144C0.312105 7.35752 0.0957041 7.49574 0.0236687 7.71618C-0.0482826 7.93662 0.0437931 8.175 0.300148 8.43144L4.67549 12.6865L3.64178 18.6965C3.60178 18.9611 3.62574 19.1669 3.71398 19.3154C3.80206 19.4638 3.93838 19.5379 4.12266 19.5379C4.25894 19.5379 4.41918 19.4899 4.60346 19.3933L10.0006 16.5565L15.3976 19.3933C15.5818 19.4896 15.7422 19.5379 15.8785 19.5379C16.0629 19.5379 16.1994 19.4638 16.2873 19.3154C16.3752 19.1669 16.3992 18.9611 16.3592 18.6965L15.3255 12.6865L19.6885 8.43144C19.9531 8.175 20.0491 7.93662 19.9765 7.71618ZM14.2554 11.5806L13.6664 12.1457L13.8108 12.939L14.5319 17.2063L10.7097 15.1869L10.0003 14.814V3.23874L11.9115 7.10925L12.2719 7.83036L13.0655 7.9506L17.3448 8.57555L14.2554 11.5806Z" fill="#FFDD2B"/>
</svg>
